<?xml version="1.0" standalone="no"?>
<svg version="1.0" viewBox="0 0 512.000000 512.000000" preserveAspectRatio="xMidYMid meet">

<g transform="translate(0.000000,512.000000) scale(0.100000,-0.100000)" stroke="none">
    <path d="M2345 4590 c-468 -53 -894 -258 -1225 -590 -406 -406 -620 -951 -597
    -1520 52 -1255 1205 -2163 2436 -1919 711 141 1294 652 1530 1342 407 1185
    -347 2450 -1589 2668 -132 23 -427 33 -555 19z m403 -241 c530 -58 1010 -347
    1305 -787 73 -109 177 -318 215 -437 231 -703 12 -1470 -553 -1943 -373 -313
    -866 -464 -1343 -411 -225 24 -403 78 -617 184 -194 97 -311 181 -465 335
    -152 152 -237 270 -333 460 -220 436 -256 912 -106 1375 38 115 133 312 202
    418 367 562 1032 879 1695 806z"/>
    <path d="M1666 3624 c-34 -11 -64 -31 -102 -68 -89 -89 -84 -35 -84 -996 0
    -959 -4 -907 83 -994 91 -91 36 -86 997 -86 960 0 906 -5 995 85 90 89 85 35
    85 995 0 960 5 906 -85 995 -89 90 -35 85 -999 84 -718 0 -848 -3 -890 -15z
    m1722 -236 c17 -17 17 -1639 0 -1656 -17 -17 -1639 -17 -1656 0 -17 17 -17
    1639 0 1656 17 17 1639 17 1656 0z"/>
    <path d="M2515 3071 c-11 -5 -31 -21 -45 -36 -24 -26 -25 -32 -28 -190 l-3
    -164 -164 -3 -165 -3 -32 -33 c-28 -28 -33 -39 -33 -82 0 -43 5 -54 33 -82
    l32 -33 165 -3 164 -3 3 -164 3 -165 33 -32 c28 -28 39 -33 82 -33 43 0 54 5
    82 33 l33 32 3 165 3 164 164 3 165 3 32 33 c28 28 33 39 33 82 0 43 -5 54
    -33 82 l-32 33 -165 3 -164 3 -3 164 -3 165 -31 31 c-33 33 -92 46 -129 30z"/>
    </g>
</svg>
