<?xml version="1.0" standalone="no"?>
<svg version="1.0"  width="64.000000pt" height="64.000000pt" viewBox="0 0 64.000000 64.000000"
 preserveAspectRatio="xMidYMid meet">

<g transform="translate(0.000000,64.000000) scale(0.100000,-0.100000)" stroke="none">
<path d="M300 552 c0 -10 -16 -25 -42 -37 -57 -28 -88 -87 -88 -169 0 -59 -5
-73 -52 -138 -10 -14 -10 -22 -2 -35 10 -16 31 -18 204 -18 173 0 194 2 204
18 8 13 8 21 -2 35 -47 65 -52 79 -52 137 0 84 -30 143 -87 170 -27 12 -43 27
-43 37 0 11 -8 18 -20 18 -12 0 -20 -7 -20 -18z"/>
<path d="M252 108 c9 -13 27 -27 42 -32 33 -12 74 1 94 32 l14 22 -82 0 -82 0
14 -22z"/>
</g>
</svg>
