<?xml version="1.0" standalone="no"?>
<!DOCTYPE svg PUBLIC "-//W3C//DTD SVG 20010904//EN"
 "http://www.w3.org/TR/2001/REC-SVG-20010904/DTD/svg10.dtd">
<svg version="1.0" xmlns="http://www.w3.org/2000/svg"
 width="512.000000pt" height="512.000000pt" viewBox="0 0 512.000000 512.000000"
 preserveAspectRatio="xMidYMid meet">

<g transform="translate(0.000000,512.000000) scale(0.100000,-0.100000)" stroke="none">
<path d="M712 4220 c-224 -59 -395 -231 -452 -456 -19 -72 -20 -112 -20 -638
0 -633 1 -644 71 -785 77 -157 241 -286 406 -322 32 -7 61 -15 65 -18 4 -4 21
-154 38 -335 16 -180 35 -336 40 -346 13 -25 42 -40 73 -40 18 0 85 52 236
185 l210 185 88 -89 c71 -71 104 -96 173 -130 146 -71 136 -71 954 -71 l728 0
345 -240 c199 -138 355 -240 368 -240 49 0 70 33 160 257 48 120 88 219 89
220 1 1 35 9 76 17 245 51 454 258 505 501 22 103 22 1347 0 1450 -39 184
-179 365 -346 445 -128 61 -185 70 -471 70 l-247 0 -38 73 c-55 105 -155 202
-264 256 -151 74 -78 71 -1469 70 -1192 0 -1248 -1 -1318 -19z m2600 -151 c29
-6 77 -22 106 -36 58 -27 157 -114 185 -162 l18 -31 -878 0 c-983 0 -955 1
-1103 -71 -169 -83 -307 -260 -345 -444 -22 -104 -22 -1347 0 -1450 8 -38 15
-71 15 -71 0 -5 -312 -275 -314 -273 -2 2 -15 132 -29 288 -27 298 -34 326
-80 335 -12 2 -55 9 -95 15 -104 16 -175 52 -253 130 -70 71 -109 140 -128
229 -15 73 -15 1111 0 1184 19 89 58 158 128 229 69 68 131 105 216 125 69 17
2478 19 2557 3z m1033 -404 c182 -47 312 -178 360 -361 13 -49 15 -161 15
-704 0 -703 0 -699 -58 -818 -69 -143 -258 -262 -417 -262 -23 0 -49 -6 -58
-12 -18 -13 -62 -111 -138 -305 -24 -62 -47 -113 -51 -113 -4 0 -128 84 -275
187 -147 102 -288 199 -312 215 l-45 28 -746 0 c-813 0 -802 -1 -920 58 -70
35 -167 132 -202 202 -58 117 -58 117 -58 817 0 429 4 660 11 695 37 178 185
330 364 374 38 9 335 12 1260 13 1057 1 1218 -1 1270 -14z"/>
</g>
</svg>
