<?xml version="1.0" standalone="no"?>
<svg version="1.0"
 width="512.000000pt" height="512.000000pt" viewBox="0 0 512.000000 512.000000"
 preserveAspectRatio="xMidYMid meet">
<g transform="translate(0.000000,512.000000) scale(0.100000,-0.100000)"
fill="#5e5e5e" stroke="none">
<path d="M3741 4524 c-154 -41 -277 -168 -314 -326 l-12 -48 -1687 0 c-1675 0
-1688 0 -1708 -20 -26 -26 -25 -46 5 -75 l24 -25 1684 0 1685 0 11 -46 c19
-75 60 -144 120 -204 240 -240 651 -124 740 208 l12 42 382 0 c422 0 427 1
427 60 0 61 7 60 -420 60 l-388 0 -7 38 c-13 69 -66 165 -124 222 -114 113
-276 156 -430 114z m217 -120 c76 -25 140 -79 181 -154 33 -60 36 -71 36 -150
0 -71 -4 -94 -26 -140 -33 -70 -89 -126 -159 -159 -74 -35 -192 -37 -261 -3
-74 36 -125 87 -161 159 -27 56 -32 77 -32 137 0 222 213 377 422 310z"/>
<path d="M1196 2998 c-168 -22 -324 -163 -366 -330 l-12 -48 -389 0 c-376 0
-390 -1 -409 -20 -25 -25 -25 -41 1 -74 l20 -26 389 0 388 0 12 -47 c38 -151
167 -282 320 -323 62 -17 169 -15 236 5 140 41 259 160 301 302 l18 63 1686 0
c1621 0 1687 1 1702 18 22 24 21 65 -1 85 -17 16 -150 17 -1704 17 l-1686 0
-7 36 c-10 54 -48 133 -86 181 -98 122 -253 183 -413 161z m162 -130 c85 -21
183 -117 213 -207 18 -54 16 -149 -5 -211 -26 -76 -120 -170 -194 -195 -157
-52 -325 15 -400 160 -19 38 -26 70 -30 131 -4 73 -1 88 23 142 31 69 101 141
161 167 77 33 140 36 232 13z"/>
<path d="M3739 1452 c-78 -21 -152 -67 -209 -128 -46 -50 -97 -149 -106 -206
l-7 -38 -1693 0 -1694 0 -17 -26 c-15 -24 -15 -29 -2 -53 l15 -26 1693 -5
1694 -5 21 -65 c51 -159 161 -265 311 -304 235 -62 478 78 541 310 l17 64 391
0 c292 0 395 3 404 12 16 16 16 70 0 86 -9 9 -112 12 -403 12 l-391 0 -22 74
c-67 227 -311 361 -543 298z m235 -122 c72 -27 139 -88 173 -158 24 -49 28
-69 28 -142 0 -66 -5 -96 -22 -132 -86 -188 -319 -248 -488 -127 -112 81 -158
231 -112 366 31 88 123 175 217 204 50 15 148 9 204 -11z"/>
</g>
</svg>
