<?xml version="1.0" standalone="no"?>
<svg version="1.0" viewBox="0 0 512.000000 512.000000" preserveAspectRatio="xMidYMid meet">
    <g transform="translate(0.000000,512.000000) scale(0.100000,-0.100000)" stroke="none">
        <path d="M2380 4944 c-255 -29 -388 -57 -585 -122 -79 -26 -207 -79 -295 -123
        -262 -131 -447 -267 -655 -481 -192 -197 -316 -375 -436 -623 -108 -224 -175
        -441 -216 -697 -24 -157 -24 -517 1 -676 64 -410 218 -780 459 -1101 95 -128
        304 -340 431 -440 329 -257 715 -422 1146 -488 142 -21 489 -24 630 -5 354 49
        684 168 977 353 140 88 250 176 387 309 385 374 619 833 703 1380 24 160 24
        500 0 660 -41 262 -108 482 -216 706 -130 268 -267 458 -483 671 -366 358
        -811 581 -1318 658 -99 15 -454 28 -530 19z m530 -304 c620 -108 1144 -470
        1470 -1016 80 -134 162 -324 205 -473 268 -932 -122 -1911 -958 -2409 -632
        -376 -1436 -387 -2082 -29 -571 317 -951 852 -1066 1502 -33 187 -33 503 0
        690 116 654 502 1194 1083 1513 215 119 515 212 779 241 135 16 425 6 569 -19z"/>
        <path d="M2470 3980 c-363 -44 -659 -346 -687 -702 l-6 -78 142 0 141 0 0 38
        c0 88 52 214 121 294 192 226 566 225 759 0 87 -103 125 -222 118 -371 -10
        -189 -61 -279 -288 -515 -165 -172 -241 -276 -289 -398 -31 -76 -61 -220 -61
        -289 l0 -39 140 0 140 0 0 33 c0 59 29 171 61 235 37 76 91 142 259 316 138
        144 195 220 245 330 57 124 69 183 70 356 0 135 -3 165 -23 230 -86 274 -309
        485 -575 544 -85 19 -189 25 -267 16z"/>
        <path d="M2400 1435 l0 -145 160 0 160 0 0 145 0 145 -160 0 -160 0 0 -145z"/>
    </g>
</svg>
