<?xml version="1.0" standalone="no"?>
<svg version="1.0" width="50.000000pt" height="50.000000pt" viewBox="0 0 50.000000 50.000000"
 preserveAspectRatio="xMidYMid meet">

<g transform="translate(0.000000,50.000000) scale(0.100000,-0.100000)" stroke="none">
<path d="M172 481 c-104 -36 -166 -123 -166 -231 0 -188 197 -305 362 -215 63
34 107 92 122 161 42 186 -140 349 -318 285z m197 -44 c62 -41 94 -97 99 -171
3 -42 -1 -74 -12 -101 l-16 -38 -32 32 c-18 18 -44 39 -60 47 -31 16 -35 26
-14 43 22 18 27 69 11 107 -29 69 -140 81 -181 19 -23 -36 -20 -102 6 -130
l22 -23 -23 -7 c-12 -4 -41 -25 -65 -47 l-44 -41 -15 36 c-19 45 -19 127 -2
170 21 48 62 92 110 117 61 31 158 25 216 -13z m-62 -69 c32 -30 31 -81 -2
-113 -72 -73 -178 28 -114 109 27 34 82 36 116 4z m-2 -169 c22 -6 56 -28 79
-50 38 -39 39 -40 20 -61 -68 -76 -240 -76 -308 1 -19 21 -19 21 21 59 59 56
115 71 188 51z"/>
</g>
</svg>
