<?xml version="1.0" standalone="no"?>
<svg version="1.0"  width="512.000000pt" height="512.000000pt" viewBox="0 0 512.000000 512.000000" preserveAspectRatio="xMidYMid meet">
<g transform="translate(0.000000,512.000000) scale(0.100000,-0.100000)" stroke="none">
<path d="M995 4423 c-55 -7 -138 -34 -195 -63 -133 -67 -248 -202 -292 -343
l-23 -72 0 -1385 0 -1385 24 -73 c61 -186 209 -328 406 -389 57 -17 134 -18
1645 -18 1511 0 1588 1 1645 18 193 60 335 193 403 378 l27 74 3 930 c2 651 0
949 -8 995 -37 217 -217 409 -435 465 -32 8 -90 15 -127 15 l-68 0 0 153 c0
171 -11 257 -42 331 -71 168 -192 282 -365 343 l-78 28 -1245 1 c-685 1 -1258
-1 -1275 -3z m2525 -339 c25 -11 64 -41 87 -67 60 -65 73 -118 73 -299 l0
-148 -1337 2 c-1263 3 -1340 4 -1378 21 -50 23 -110 80 -138 132 -30 56 -30
173 0 230 40 75 110 128 198 148 11 3 567 4 1235 3 1211 -1 1215 -1 1260 -22z
m-2540 -823 c44 -7 573 -11 1600 -11 l1535 0 51 -24 c27 -13 67 -43 87 -66 71
-83 68 -33 65 -1046 l-3 -909 -22 -40 c-28 -54 -100 -119 -149 -136 -58 -21
-3110 -21 -3168 0 -49 17 -121 82 -149 136 l-22 40 -3 1056 -2 1057 57 -23
c32 -13 87 -29 123 -34z"/>
<path d="M3568 2338 c-21 -5 -58 -28 -82 -50 -113 -98 -89 -275 45 -342 88
-44 176 -30 245 39 152 152 0 411 -208 353z"/>
</g>
</svg>
