<?xml version="1.0" standalone="no"?>
<svg version="1.0" xmlns="http://www.w3.org/2000/svg"
 width="1486.000000pt" height="1539.000000pt" viewBox="0 0 1486.000000 1539.000000"
 preserveAspectRatio="xMidYMid meet">
<metadata>
</metadata>
<g transform="translate(0.000000,1539.000000) scale(0.100000,-0.100000)" stroke="none">
<path d="M721 15369 c-355 -70 -634 -350 -706 -708 -23 -114 -16 -314 15 -421
103 -357 423 -620 787 -647 l73 -6 0 -4053 0 -4054 -249 0 c-136 0 -272 -5
-301 -10 -132 -25 -237 -106 -297 -228 l-38 -76 0 -580 0 -581 27 -57 c45 -97
132 -178 238 -224 44 -19 113 -19 3327 -24 l3281 -5 -1661 -1695 c-914 -932
-1668 -1708 -1675 -1723 -18 -42 -15 -136 7 -177 10 -19 37 -48 60 -65 37 -26
52 -30 104 -30 37 1 74 7 92 17 17 9 818 820 1780 1802 963 982 1753 1786
1757 1786 3 0 807 -804 1785 -1786 978 -982 1790 -1792 1804 -1800 75 -39 171
-24 230 35 50 49 65 107 49 180 l-12 55 -1694 1700 -1694 1701 3362 5 3363 5
52 21 c139 57 235 175 262 319 14 76 15 1011 1 1085 -32 170 -170 308 -339
340 -29 5 -202 10 -382 10 l-329 0 0 4055 0 4055 39 0 c67 0 203 30 281 63
256 106 429 291 522 557 32 94 33 97 33 275 -1 170 -2 185 -29 265 -96 293
-301 498 -596 597 l-85 28 -6600 1 c-3717 1 -6619 -2 -6644 -7z m13188 -384
c94 -25 162 -65 237 -139 105 -106 154 -220 154 -364 0 -230 -172 -443 -401
-497 -57 -13 -801 -15 -6559 -15 -5758 0 -6502 2 -6559 15 -227 54 -401 271
-401 500 0 225 166 439 387 500 75 21 13064 21 13142 0z m-499 -5450 l0 -4055
-6070 0 -6070 0 0 4055 0 4055 6070 0 6070 0 0 -4055z m1058 -4940 c2 -452 1
-491 -15 -502 -13 -10 -1435 -13 -7029 -13 -6362 0 -7014 1 -7028 16 -14 14
-16 72 -16 493 0 358 3 480 12 489 9 9 1583 11 7043 10 l7030 -3 3 -490z"/>
<path d="M2995 12854 c-16 -8 -41 -25 -53 -37 -54 -50 -52 -15 -52 -876 0
-542 3 -809 11 -828 14 -38 46 -71 91 -94 37 -19 66 -19 841 -17 l803 3 37 25
c22 15 48 46 62 74 l25 50 0 776 c0 568 -3 786 -12 811 -18 52 -48 87 -93 109
-40 19 -62 20 -836 20 -700 0 -798 -2 -824 -16z m1385 -919 l0 -555 -555 0
-555 0 0 555 0 555 555 0 555 0 0 -555z"/>
<path d="M6015 12131 c-143 -64 -152 -271 -15 -341 39 -20 46 -20 2493 -18
l2454 3 37 29 c105 80 99 241 -12 317 l-36 24 -2440 2 c-2352 3 -2442 2 -2481
-16z"/>
<path d="M3007 10465 c-47 -16 -81 -46 -101 -90 -14 -29 -16 -130 -16 -835 0
-796 0 -803 21 -840 11 -20 39 -49 62 -63 l41 -27 803 0 c787 0 805 0 843 20
22 11 52 39 67 62 l28 42 3 785 c2 541 0 798 -8 823 -14 50 -56 97 -105 119
-38 18 -84 19 -820 18 -635 0 -787 -2 -818 -14z m1373 -920 l0 -555 -555 0
-555 0 0 555 0 555 555 0 555 0 0 -555z"/>
<path d="M6005 9724 c-45 -23 -66 -45 -86 -89 -46 -100 0 -216 103 -260 33
-13 296 -15 2460 -15 2337 0 2424 1 2463 19 47 22 89 64 104 104 29 75 0 174
-65 223 l-37 29 -2456 2 c-2213 3 -2459 1 -2486 -13z"/>
<path d="M3034 8081 c-51 -13 -98 -47 -122 -89 l-22 -40 0 -804 c0 -907 -6
-843 79 -903 l43 -30 784 -3 c556 -2 797 1 827 9 54 14 112 72 126 126 8 30
11 271 9 827 l-3 784 -30 43 c-16 23 -48 52 -70 63 -39 21 -50 21 -815 23
-426 1 -789 -2 -806 -6z m1346 -936 l0 -555 -555 0 -555 0 0 555 0 555 555 0
555 0 0 -555z"/>
<path d="M6015 7326 c-16 -8 -44 -29 -61 -47 -84 -90 -64 -233 40 -294 l43
-25 2442 0 c2411 0 2442 0 2480 20 135 68 133 273 -1 339 l-44 21 -2435 0
c-2015 -1 -2439 -3 -2464 -14z"/>
</g>
</svg>
