<?xml version="1.0" standalone="no"?>
<svg version="1.0" xmlns="http://www.w3.org/2000/svg"
 width="1433.000000pt" height="1437.000000pt" viewBox="0 0 1433.000000 1437.000000"
 preserveAspectRatio="xMidYMid meet">
<metadata>
</metadata>
<g transform="translate(0.000000,1437.000000) scale(0.100000,-0.100000)" stroke="none">
<path d="M1935 14354 c-38 -8 -108 -33 -155 -56 -68 -33 -102 -58 -165 -122
-92 -92 -138 -172 -182 -311 l-27 -90 -4 -627 -3 -628 -403 0 c-455 0 -489 -4
-629 -77 -108 -56 -231 -182 -285 -293 -70 -143 -77 -181 -77 -455 0 -267 7
-310 69 -440 87 -182 242 -313 441 -371 52 -15 117 -18 463 -21 l402 -4 0
-660 0 -659 -398 0 c-447 0 -474 -3 -617 -78 -106 -55 -229 -182 -283 -292
-70 -143 -77 -181 -77 -455 0 -272 7 -313 75 -450 87 -178 239 -304 435 -361
52 -15 117 -18 471 -21 l411 -4 -4 -372 c-2 -205 -6 -499 -9 -653 l-6 -282
-397 -5 c-444 -5 -468 -8 -616 -85 -106 -55 -229 -182 -283 -292 -70 -143 -77
-181 -77 -455 0 -272 7 -313 75 -450 87 -178 240 -304 435 -361 52 -15 117
-18 473 -21 l412 -4 0 -654 0 -653 -407 -5 c-458 -4 -479 -7 -628 -85 -106
-55 -229 -182 -283 -292 -70 -143 -77 -181 -77 -455 0 -272 7 -313 75 -450 67
-137 170 -241 305 -308 137 -69 146 -70 593 -74 l402 -4 0 -527 c0 -561 5
-640 51 -787 94 -306 339 -521 672 -589 69 -14 508 -16 4509 -16 3937 0 4444
2 4528 15 450 73 683 311 767 786 15 85 17 262 20 1791 3 1416 1 1702 -10
1730 l-14 33 401 395 c1429 1407 1903 1880 1934 1933 112 187 120 414 22 614
-44 89 -30 73 -596 676 -289 307 -334 346 -465 397 -161 62 -340 62 -512 0
-138 -51 -201 -100 -487 -379 l-265 -259 -7 166 c-5 129 -9 5030 -5 5707 1
167 -12 227 -80 365 -39 81 -60 109 -137 185 -94 93 -160 138 -268 184 l-63
26 -4685 2 c-4053 1 -4694 -1 -4755 -13z m9394 -391 c106 -54 189 -161 209
-270 5 -30 5 -231 0 -509 -9 -469 -2 -5474 8 -5709 l6 -130 -1505 -1488
c-1036 -1025 -1510 -1500 -1521 -1525 -8 -20 -156 -496 -327 -1056 -285 -933
-311 -1024 -307 -1077 7 -97 84 -168 183 -169 47 0 2036 582 2076 608 15 9
294 280 621 602 326 322 635 625 686 675 l93 89 -4 -1524 c-3 -1393 -4 -1533
-20 -1618 -52 -278 -143 -389 -375 -455 l-77 -22 -4424 -3 c-3960 -2 -4431 -1
-4485 13 -201 51 -326 172 -383 370 -15 53 -17 127 -21 607 l-3 548 368 0
c263 1 390 5 443 14 252 45 454 223 538 471 26 78 26 85 27 340 0 218 -3 270
-18 324 -54 197 -182 353 -362 441 -143 71 -155 72 -587 77 l-388 5 0 654 0
654 358 0 c253 1 379 5 432 14 252 45 454 223 538 471 26 78 26 85 27 340 0
218 -3 270 -18 324 -54 197 -182 353 -362 441 -144 71 -154 73 -595 77 l-395
5 2 261 c2 144 6 439 9 655 l6 392 357 0 c376 1 451 7 562 49 185 70 339 236
406 436 27 79 27 85 28 340 0 218 -3 270 -18 324 -54 196 -183 353 -362 441
-138 68 -151 70 -597 70 l-398 0 0 660 0 660 368 0 c265 1 388 4 442 14 255
47 453 220 537 471 27 78 27 85 28 340 0 218 -3 270 -18 324 -54 196 -183 353
-362 441 -138 68 -152 70 -588 70 l-388 0 3 598 c3 533 6 603 21 649 37 112
121 193 217 212 25 5 2071 9 4650 10 l4605 1 54 -27z m-8776 -1843 c76 -29
130 -79 169 -158 l33 -67 0 -195 c0 -241 -9 -276 -94 -361 -101 -101 -24 -94
-1096 -94 l-930 0 -55 26 c-74 34 -120 76 -156 141 l-29 53 -3 208 c-4 226 2
264 53 338 30 42 99 94 152 114 31 11 202 14 970 14 910 1 934 1 986 -19z m35
-2994 c65 -36 107 -82 141 -156 25 -53 26 -61 26 -250 0 -241 -9 -276 -94
-361 -101 -101 -24 -94 -1096 -94 l-930 0 -55 26 c-74 34 -120 76 -156 141
l-29 53 -3 208 c-4 228 2 263 55 340 30 43 94 91 151 112 31 11 199 13 987 12
l950 -2 53 -29z m10498 -1129 c38 -19 133 -115 434 -436 259 -276 391 -424
404 -453 11 -25 19 -66 19 -99 0 -96 -23 -126 -362 -457 l-307 -300 -569 563
-570 563 285 287 c254 255 293 290 356 321 115 57 212 61 310 11z m-679 -1668
l473 -467 -648 -639 c-1814 -1792 -2165 -2134 -2177 -2121 -7 7 -247 274 -535
592 l-523 579 859 850 c472 468 1088 1079 1369 1358 l509 508 101 -97 c55 -53
312 -307 572 -563z m-9819 -183 c65 -36 107 -82 141 -156 25 -53 26 -61 26
-250 0 -227 -10 -270 -79 -347 -53 -58 -115 -91 -198 -104 -39 -6 -410 -9
-953 -7 l-890 3 -55 26 c-74 34 -120 76 -156 141 l-29 53 -3 208 c-4 228 2
263 55 340 30 43 94 91 151 112 31 11 199 13 987 12 l950 -2 53 -29z m6672
-2740 c317 -350 448 -501 438 -506 -22 -13 -1320 -392 -1324 -387 -6 6 420
1397 428 1394 4 -1 210 -227 458 -501z m-6672 -240 c65 -36 107 -82 141 -156
25 -53 26 -61 26 -250 0 -163 -3 -204 -18 -247 -23 -65 -89 -141 -153 -173
l-49 -25 -954 -3 -954 -2 -51 23 c-69 32 -116 75 -152 139 l-29 53 -3 210 c-3
196 -2 215 18 268 28 75 100 148 172 176 52 20 68 20 1003 18 l950 -2 53 -29z"/>
<path d="M4037 12099 c-20 -11 -49 -37 -63 -59 -66 -99 -27 -232 81 -281 38
-18 138 -19 2610 -19 2472 0 2572 1 2610 19 137 62 152 253 26 332 l-45 29
-2590 0 c-2563 -1 -2591 -1 -2629 -21z"/>
<path d="M4037 10619 c-20 -11 -49 -37 -63 -59 -66 -99 -27 -232 81 -281 38
-18 138 -19 2610 -19 2472 0 2572 1 2610 19 137 62 152 253 26 332 l-45 29
-2590 0 c-2563 -1 -2591 -1 -2629 -21z"/>
<path d="M4045 9143 c-46 -24 -66 -45 -86 -88 -46 -100 0 -216 103 -260 33
-13 310 -15 2605 -15 2470 0 2570 1 2608 19 137 62 152 253 26 332 l-45 29
-2590 0 c-2345 -1 -2594 -2 -2621 -17z"/>
<path d="M4045 7663 c-46 -24 -66 -45 -86 -88 -46 -100 0 -216 103 -260 33
-13 184 -15 1311 -15 1335 0 1309 -1 1370 44 106 78 78 278 -46 325 -20 8
-430 11 -1325 11 -1164 -1 -1300 -2 -1327 -17z"/>
<path d="M3680 3690 l0 -270 270 0 270 0 0 270 0 270 -270 0 -270 0 0 -270z"/>
<path d="M5210 3690 l0 -270 270 0 270 0 0 270 0 270 -270 0 -270 0 0 -270z"/>
<path d="M6740 3690 l0 -270 270 0 270 0 0 270 0 270 -270 0 -270 0 0 -270z"/>
</g>
</svg>
