<?xml version="1.0" standalone="no"?>
<svg version="1.0" xmlns="http://www.w3.org/2000/svg"
 width="1722.000000pt" height="1572.000000pt" viewBox="0 0 1722.000000 1572.000000"
 preserveAspectRatio="xMidYMid meet">
<metadata>
</metadata>
<g transform="translate(0.000000,1572.000000) scale(0.100000,-0.100000)" stroke="none">
<path d="M3587 15704 c-346 -63 -588 -277 -703 -624 l-28 -85 -4 -347 -3 -346
-347 -4 c-337 -5 -350 -6 -447 -31 -335 -90 -548 -304 -643 -647 l-27 -95 -3
-1732 -2 -1733 -358 0 c-370 0 -443 -6 -552 -39 -161 -50 -315 -183 -392 -338
-86 -172 -79 266 -76 -4308 3 -4048 3 -4070 23 -4109 11 -21 238 -304 505
-629 365 -444 495 -595 523 -610 47 -24 130 -26 172 -4 17 8 44 30 61 49 64
68 916 1182 938 1227 31 60 46 143 46 248 l0 83 3144 0 3144 0 4 -133 c5 -203
9 -208 333 -334 1099 -429 2423 -617 3582 -508 679 64 1363 234 1958 487 252
108 303 135 333 180 l27 42 5 1115 5 1115 405 173 c223 94 408 172 413 172 4
1 7 -313 7 -696 0 -690 0 -697 21 -741 32 -66 86 -97 169 -97 83 0 137 31 169
97 21 44 21 50 21 824 l0 779 553 234 c303 128 566 244 583 257 101 75 85 254
-28 313 -24 13 -1100 465 -2393 1005 l-2350 982 -5 4004 -5 4005 -22 76 c-103
361 -352 605 -721 707 l-97 27 -3930 2 c-3339 1 -3942 -1 -4008 -13z m7958
-392 c114 -39 185 -82 266 -162 56 -56 86 -94 113 -150 71 -147 66 198 66
-4077 0 -2125 -2 -3863 -4 -3863 -2 0 -63 25 -136 55 -97 40 -145 55 -179 55
-37 -1 -124 -34 -441 -169 -217 -93 -395 -168 -396 -168 0 1 5 1471 13 3267 9
2308 10 3290 3 3349 -35 274 -188 519 -422 674 -99 66 -196 109 -327 146 l-96
26 -3387 3 -3388 2 0 294 c0 270 2 299 21 362 63 205 201 333 402 369 59 11
778 13 3947 12 l3875 -2 70 -23z m-1540 -1415 c94 -27 215 -91 276 -146 99
-89 170 -219 187 -349 10 -73 -15 -6723 -25 -6733 -5 -4 -955 -411 -2113 -904
-1370 -584 -2115 -906 -2134 -924 -34 -31 -65 -95 -66 -135 0 -49 22 -105 55
-139 26 -26 233 -115 1201 -513 l1169 -480 3 -782 2 -782 -3145 0 -3145 0 -2
3733 c-3 3528 -4 3735 -21 3792 -9 33 -36 98 -59 145 -57 117 -177 239 -293
297 -44 21 -90 42 -103 45 l-22 6 0 1724 c0 1557 2 1730 16 1779 38 126 118
240 213 300 55 36 150 68 233 78 34 5 1784 8 3888 7 3620 -1 3828 -2 3885 -19z
m-8297 -4255 c55 -29 115 -89 144 -144 23 -42 23 -49 26 -420 l3 -378 -751 0
-751 0 3 368 c3 362 3 368 27 420 29 63 113 144 173 165 37 14 119 15 563 14
l520 -2 43 -23z m-768 -4737 l0 -3415 -280 0 -280 0 0 3415 0 3415 280 0 280
0 0 -3415z m940 5 l0 -3410 -280 0 -280 0 0 3410 0 3410 280 0 280 0 0 -3410z
m12217 848 c1333 -557 2419 -1015 2415 -1019 -4 -3 -1088 -464 -2409 -1024
l-2402 -1017 -2428 997 c-1335 549 -2431 1001 -2435 1004 -6 5 4804 2066 4832
2070 3 1 1095 -454 2427 -1011z m323 -3265 l0 -938 -126 -53 c-587 -250 -1181
-398 -1884 -469 -250 -25 -995 -25 -1255 0 -385 38 -753 97 -1101 178 -325 74
-774 212 -1025 313 l-84 34 -3 927 c-2 880 -1 927 15 922 10 -2 617 -251 1348
-552 1060 -437 1341 -549 1385 -552 54 -5 77 4 1390 561 734 311 1336 566
1338 566 1 0 2 -422 2 -937z m-12872 -1455 c-19 -24 -117 -150 -217 -280 -100
-131 -186 -240 -190 -242 -6 -4 -319 369 -451 537 l-21 27 456 0 457 0 -34
-42z"/>
<path d="M3340 12191 c-93 -29 -140 -91 -140 -186 0 -75 31 -130 92 -165 l43
-25 2815 0 c1548 0 2827 3 2842 7 40 12 89 57 109 103 48 106 -9 234 -119 265
-44 12 -5602 13 -5642 1z"/>
<path d="M3344 10140 c-90 -21 -144 -91 -144 -184 0 -94 43 -155 129 -184 46
-16 5597 -17 5653 -2 137 39 182 217 80 323 -58 61 137 57 -2906 56 -1530 -1
-2795 -4 -2812 -9z"/>
<path d="M3325 8098 c-83 -29 -125 -92 -125 -184 0 -74 31 -130 92 -164 l43
-25 2790 -3 c1979 -2 2805 1 2843 9 62 13 108 48 133 104 48 106 -9 234 -119
265 -53 14 -5616 12 -5657 -2z"/>
<path d="M3340 6051 c-93 -29 -140 -91 -140 -186 0 -75 31 -130 92 -165 l43
-25 847 0 846 0 43 30 c61 43 84 87 84 160 0 73 -23 117 -84 160 l-43 30 -831
2 c-458 1 -843 -2 -857 -6z"/>
<path d="M3344 4001 c-90 -22 -144 -92 -144 -185 0 -94 43 -155 129 -184 47
-16 1638 -17 1696 -1 53 15 110 73 125 129 24 89 -17 187 -96 226 -37 18 -72
19 -859 21 -451 1 -834 -2 -851 -6z"/>
</g>
</svg>
