<?xml version="1.0" standalone="no"?>
<svg version="1.0" xmlns="http://www.w3.org/2000/svg"
 width="1540.000000pt" height="1541.000000pt" viewBox="0 0 1540.000000 1541.000000"
 preserveAspectRatio="xMidYMid meet">
<metadata>
</metadata>
<g transform="translate(0.000000,1541.000000) scale(0.100000,-0.100000)" stroke="none">
<path d="M10256 15399 c-749 -79 -1396 -600 -1636 -1316 -120 -359 -134 -753
-40 -1118 106 -412 365 -804 694 -1053 l69 -52 -2342 0 -2341 0 0 820 0 820
155 0 155 0 0 195 0 195 -1505 0 -1505 0 0 -195 0 -195 170 0 170 0 0 -1677
c0 -1082 4 -1717 10 -1788 38 -395 189 -738 445 -1004 122 -127 231 -210 350
-267 140 -66 197 -79 360 -78 130 0 147 2 235 32 301 100 593 379 772 737 59
117 128 321 153 453 l17 92 1559 0 1559 0 0 -1300 0 -1300 -630 0 -630 0 0
-195 0 -195 245 0 245 0 0 -305 0 -305 -1170 0 -1170 0 0 323 0 322 48 17
c125 45 266 161 336 276 264 435 2 986 -502 1053 -50 6 -451 9 -1132 7 -1181
-4 -1085 2 -1250 -79 -68 -34 -102 -59 -170 -128 -142 -143 -200 -283 -200
-486 0 -203 58 -343 200 -486 67 -67 103 -94 169 -127 46 -23 90 -42 97 -42
12 0 14 -55 14 -325 l0 -325 -1125 0 -1125 0 0 -2907 c0 -1600 -3 -3040 -7
-3201 l-6 -292 7701 0 7702 0 0 3105 c0 2753 -2 3105 -15 3105 -12 0 -15 17
-15 95 l0 95 -490 0 -490 0 0 1168 c0 717 -4 1211 -10 1282 -110 1232 -844
2317 -1935 2862 -71 36 -173 83 -225 104 l-95 39 -263 3 -263 3 65 49 c35 27
105 88 155 136 543 516 740 1310 504 2029 -135 412 -431 793 -800 1028 -367
235 -828 342 -1267 296z m354 -379 c194 -20 361 -66 527 -145 672 -318 1029
-1060 858 -1783 -69 -289 -216 -544 -439 -760 -219 -212 -475 -348 -780 -414
-86 -19 -132 -22 -306 -22 -174 0 -220 3 -306 22 -718 156 -1229 752 -1261
1472 -37 826 584 1543 1412 1629 114 12 186 12 295 1z m-6330 -3127 c0 -913
-5 -1660 -10 -1729 -26 -340 -144 -618 -358 -845 -184 -196 -367 -283 -526
-249 -119 25 -267 124 -378 254 -136 157 -224 326 -282 536 l-31 115 -3 1763
-2 1762 795 0 795 0 0 -1607z m5174 -1659 c412 -680 749 -1242 749 -1249 0 -6
-96 -169 -214 -361 l-214 -349 -3 -937 -2 -938 -440 0 -440 0 0 305 0 305 245
0 245 0 0 195 0 195 -620 0 -620 0 0 1490 0 1490 -1740 0 -1740 0 0 545 0 545
2023 0 2022 0 749 -1236z m626 1224 c0 -32 -152 -1205 -158 -1221 -6 -14 -96
129 -357 559 -193 318 -363 599 -378 626 l-29 48 461 0 c362 0 461 -3 461 -12z
m1562 -131 c-48 -78 -220 -359 -382 -625 -162 -265 -296 -479 -297 -474 -1 4
-30 268 -63 587 -33 319 -63 597 -66 618 l-6 37 451 0 451 0 -88 -143z m616
49 c318 -160 572 -345 827 -600 439 -442 738 -997 859 -1602 62 -307 59 -241
63 -1561 l4 -1213 -556 0 -555 0 0 1895 0 1895 -190 0 -190 0 0 -1895 0 -1895
-1185 0 -1185 0 0 873 0 873 886 1450 c487 797 938 1533 1001 1637 63 103 119
187 124 187 5 0 49 -20 97 -44z m-7688 -3392 c94 -43 149 -110 175 -212 33
-129 -32 -268 -157 -338 l-53 -29 -1075 0 -1075 0 -47 23 c-212 104 -239 395
-49 526 83 58 29 55 1171 55 l1055 1 55 -26z m-300 -1398 l0 -424 604 -1466
604 -1466 -204 -422 -204 -423 -1617 0 -1617 0 -213 442 -212 442 614 1450
615 1450 0 420 0 421 815 0 815 0 0 -424z m4240 -374 l0 -799 52 -24 c218
-101 445 -284 590 -474 182 -240 303 -554 340 -883 11 -100 10 -128 -6 -237
-97 -677 -453 -1131 -1036 -1324 -203 -67 -415 -95 -601 -80 -451 35 -804 204
-1057 504 -170 203 -287 437 -359 720 -19 77 -26 135 -30 255 -16 492 153 932
490 1272 132 133 320 270 430 312 l47 18 0 769 0 769 570 0 570 0 0 -798z
m-6360 -207 c0 -2 -257 -610 -571 -1351 -563 -1328 -571 -1348 -567 -1403 4
-48 42 -134 272 -611 284 -591 295 -608 374 -630 28 -7 578 -9 1820 -8 l1780
3 44 30 c41 29 55 55 311 585 264 547 268 556 264 610 -3 45 -101 291 -552
1385 -301 732 -554 1345 -562 1363 l-13 32 1120 0 1120 0 0 -149 0 -149 -52
-33 c-139 -89 -318 -251 -446 -404 -246 -293 -407 -666 -457 -1058 -20 -160
-20 -455 1 -578 50 -294 190 -627 370 -881 92 -130 308 -340 438 -427 326
-217 691 -324 1101 -325 622 -1 1202 282 1546 754 279 382 434 954 374 1381
-86 612 -394 1125 -867 1442 l-108 72 0 178 0 177 3065 0 3065 0 0 -2810 0
-2810 -7315 0 -7315 0 0 2810 0 2810 880 0 c484 0 880 -2 880 -5z"/>
<path d="M10490 3695 l0 -1695 1950 0 1950 0 0 1695 0 1695 -1950 0 -1950 0 0
-1695z m3520 0 l0 -1315 -1565 0 -1565 0 0 1315 0 1315 1565 0 1565 0 0 -1315z"/>
<path d="M11460 4185 l0 -265 1000 0 1000 0 0 265 0 265 -1000 0 -1000 0 0
-265z"/>
<path d="M11460 3195 l0 -265 1000 0 1000 0 0 265 0 265 -1000 0 -1000 0 0
-265z"/>
</g>
</svg>
