<?xml version="1.0" standalone="no"?>
<svg version="1.0" xmlns="http://www.w3.org/2000/svg"
 width="1537.000000pt" height="1546.000000pt" viewBox="0 0 1537.000000 1546.000000"
 preserveAspectRatio="xMidYMid meet">
<metadata>
</metadata>
<g transform="translate(0.000000,1546.000000) scale(0.100000,-0.100000)" stroke="none">
<path d="M0 9480 l0 -5980 245 0 245 0 0 -1750 0 -1750 4190 0 4190 0 0 1750
0 1750 250 0 250 0 0 530 0 530 3000 0 3000 0 0 5450 0 5450 -7685 0 -7685 0
0 -5980z m14990 530 l0 -5070 -3785 0 -3785 0 0 258 1 257 565 610 c330 356
573 627 584 650 22 46 25 107 6 150 l-13 30 679 684 c708 714 747 758 813 906
83 190 96 423 34 608 l-20 61 1235 1235 1236 1236 -135 135 -135 135 -1238
-1236 -1237 -1235 -68 23 c-247 85 -550 32 -764 -134 -34 -26 -393 -358 -797
-738 -677 -635 -739 -691 -778 -697 -106 -19 -168 -68 -283 -228 -143 -198
-367 -354 -607 -424 -187 -54 -355 -58 -675 -15 l-173 23 0 180 0 181 43 30
c266 188 499 535 590 880 l24 90 259 6 c194 4 273 10 315 22 243 70 427 240
506 469 34 98 42 256 19 348 -52 209 -201 370 -406 441 -56 19 -93 23 -277 28
l-211 6 55 75 c388 528 424 1111 101 1637 -106 175 -303 390 -471 515 -318
236 -631 348 -977 348 -346 0 -669 -111 -984 -340 l-98 -71 -87 83 c-149 144
-296 234 -456 279 -103 30 -286 32 -385 6 -76 -20 -210 -83 -277 -129 -74 -51
-201 -176 -265 -261 -62 -84 -83 -139 -132 -347 -82 -344 -80 -729 4 -1054 58
-226 155 -442 284 -631 l75 -110 -237 -6 c-234 -5 -238 -6 -318 -36 -250 -94
-404 -312 -404 -569 0 -262 160 -512 403 -628 130 -62 167 -68 439 -73 l248
-5 10 -41 c101 -393 332 -750 617 -957 l62 -45 1 -177 0 -177 -517 -4 c-572
-5 -595 -7 -790 -72 -189 -63 -354 -161 -493 -292 -227 -213 -368 -455 -431
-741 -21 -91 -22 -128 -26 -624 l-5 -528 -539 0 -539 0 0 5070 0 5070 7305 0
7305 0 0 -5070z m-9598 2085 c262 -45 542 -205 759 -432 352 -368 443 -786
258 -1183 -41 -88 -129 -240 -138 -240 -4 0 -287 221 -631 491 -344 271 -641
498 -660 507 -47 19 -132 10 -174 -19 -18 -12 -44 -38 -57 -58 -22 -33 -24
-42 -21 -151 4 -206 -46 -339 -178 -470 -223 -220 -661 -340 -1247 -340 l-132
0 -42 62 c-101 149 -196 379 -239 583 -31 144 -38 428 -16 585 18 121 59 304
81 355 20 49 100 139 167 190 75 57 146 91 215 105 166 31 375 -90 576 -332
96 -116 128 -138 205 -138 70 0 99 13 162 74 223 214 499 364 756 410 105 19
252 19 356 1z m133 -1764 l440 -347 0 -559 c0 -501 -2 -571 -19 -665 -47 -267
-166 -513 -333 -691 -266 -282 -685 -423 -1125 -380 -303 30 -537 139 -735
344 -181 188 -290 399 -355 686 -20 90 -21 130 -25 597 l-4 501 150 7 c768 34
1278 272 1491 696 21 41 43 94 50 118 7 23 16 42 19 41 3 0 204 -157 446 -348z
m-2535 -1076 l0 -275 -173 0 c-200 0 -264 12 -345 66 -82 54 -151 167 -152
249 -1 99 74 194 180 226 14 4 130 8 258 8 l232 1 0 -275z m3915 249 c112 -60
156 -162 121 -276 -36 -112 -133 -202 -251 -233 -43 -11 -110 -15 -242 -15
l-183 0 0 276 0 275 258 -3 c241 -3 260 -4 297 -24z m2695 -420 c155 -49 193
-264 84 -477 -35 -66 -91 -125 -713 -749 l-675 -678 -246 252 c-135 138 -245
256 -245 263 0 16 1362 1292 1420 1329 122 79 250 100 375 60z m-1547 -2210
l78 -81 -526 -569 c-312 -337 -535 -585 -546 -609 -17 -36 -19 -68 -19 -357
l0 -318 -2601 0 -2601 0 5 503 c5 529 6 546 55 687 47 135 144 281 267 403
159 157 366 252 606 277 56 5 294 10 530 10 l429 0 0 -37 c1 -272 275 -624
581 -749 260 -107 541 -105 784 5 200 91 373 274 466 490 34 82 79 247 79 292
0 26 3 28 28 24 268 -47 587 -57 777 -25 376 64 732 281 960 584 l59 78 255
-264 c141 -145 291 -300 334 -344z m-2813 -91 c-46 -170 -163 -324 -292 -386
-293 -140 -646 -13 -798 288 -23 46 -32 82 -40 155 -9 93 -14 530 -6 530 3 0
50 -11 105 -24 149 -36 308 -50 516 -43 185 6 347 32 475 75 l55 19 3 -270 c2
-245 0 -277 -18 -344z m3750 -2563 l0 -340 -4305 0 -4305 0 0 340 0 340 4305
0 4305 0 0 -340z m-510 -2275 l0 -1555 -3805 0 -3805 0 0 1555 0 1555 3805 0
3805 0 0 -1555z"/>
<path d="M8430 13750 l0 -190 2250 0 2250 0 0 190 0 190 -2250 0 -2250 0 0
-190z"/>
<path d="M13430 13750 l0 -190 500 0 500 0 0 190 0 190 -500 0 -500 0 0 -190z"/>
<path d="M7430 12765 l0 -195 3500 0 3500 0 0 195 0 195 -3500 0 -3500 0 0
-195z"/>
</g>
</svg>
