<?xml version="1.0" standalone="no"?>
<svg version="1.0" xmlns="http://www.w3.org/2000/svg"
 width="1535.000000pt" height="1537.000000pt" viewBox="0 0 1535.000000 1537.000000"
 preserveAspectRatio="xMidYMid meet">
<metadata>
</metadata>
<g transform="translate(0.000000,1537.000000) scale(0.100000,-0.100000)" stroke="none">
<path d="M4632 15359 c-216 -28 -435 -118 -617 -255 -86 -64 -224 -206 -287
-294 -117 -166 -204 -384 -234 -590 -21 -144 -15 -495 10 -633 51 -272 147
-470 295 -610 174 -164 387 -235 669 -224 l132 5 0 -64 c0 -223 123 -452 297
-554 l59 -35 1 -170 c0 -120 5 -198 17 -265 10 -52 19 -100 19 -106 1 -6
-1067 -1067 -2373 -2357 -2498 -2467 -2420 -2387 -2504 -2555 -157 -311 -152
-720 11 -1047 79 -157 202 -309 333 -410 30 -23 421 -297 869 -610 998 -696
986 -690 1266 -689 132 0 145 2 237 33 142 49 244 115 361 235 91 93 167 201
974 1386 481 707 922 1354 980 1438 l104 152 127 -65 c742 -377 1285 -1073
1482 -1900 65 -270 72 -357 77 -857 l5 -458 -50 0 c-141 0 -336 -58 -473 -142
-105 -64 -258 -216 -313 -311 l-39 -67 -2566 0 c-2485 0 -2567 -1 -2607 -19
-23 -10 -54 -36 -70 -57 l-29 -37 0 -587 0 -587 29 -37 c16 -21 47 -47 70 -57
40 -18 133 -19 3077 -19 3269 0 3112 -2 3263 50 324 111 567 391 632 728 18
94 18 269 0 364 -40 205 -154 406 -304 536 -63 55 -163 122 -211 142 l-31 12
0 464 c0 525 -9 651 -65 929 -197 974 -808 1790 -1682 2245 l-102 53 117 171
c458 672 594 871 598 875 6 7 298 -145 439 -229 581 -346 1078 -773 1465
-1260 97 -123 274 -382 333 -491 l37 -65 -45 -22 c-62 -30 -129 -94 -185 -177
-261 -387 -248 -797 40 -1207 122 -175 396 -425 627 -573 l63 -40 0 -1552 0
-1553 -3927 0 -3926 0 -41 -24 c-24 -14 -52 -42 -66 -68 l-25 -43 0 -535 0
-535 27 -47 c19 -32 41 -52 71 -67 l43 -21 6810 2 6811 3 36 28 c21 16 46 46
57 67 20 39 20 62 20 1864 l0 1825 31 52 c238 404 397 968 449 1589 17 198 24
1005 11 1156 -42 474 -151 873 -340 1254 -432 867 -1211 1428 -2298 1654 -367
76 -642 104 -1143 116 -274 6 -358 11 -410 25 -88 23 -253 103 -322 156 -64
49 -478 481 -478 499 0 6 171 352 379 768 209 416 401 811 426 877 56 144 117
376 142 540 14 94 18 180 18 400 -1 314 -13 415 -80 673 -169 644 -600 1167
-1248 1512 -311 166 -656 265 -1042 300 -133 12 -4219 11 -4313 -1z m4373
-388 c300 -46 520 -113 750 -226 400 -199 726 -498 925 -846 239 -421 318
-971 214 -1487 -49 -248 -77 -312 -466 -1095 -200 -400 -366 -726 -370 -725
-3 2 -197 205 -430 451 l-425 448 35 72 c89 187 127 361 119 552 -8 193 -52
330 -151 470 -130 181 -311 266 -571 268 -194 2 -361 -36 -524 -117 -39 -20
-74 -36 -78 -36 -5 0 -24 26 -42 58 -200 336 -545 539 -991 582 -316 31 -612
-50 -910 -248 -240 -159 -413 -330 -673 -666 l-23 -29 -93 12 c-163 21 -241
64 -288 159 -25 52 -28 67 -27 162 0 71 6 126 19 170 36 127 30 189 -23 252
-54 64 -142 75 -268 32 -122 -40 -280 -60 -383 -46 -206 28 -341 148 -410 366
-44 139 -56 229 -55 451 0 172 3 212 21 285 101 398 407 681 801 739 31 5 998
8 2147 7 1600 -2 2109 -5 2170 -15z m-1944 -2026 c223 -39 412 -142 532 -290
26 -33 82 -127 124 -210 41 -82 91 -169 110 -192 l34 -42 74 0 c63 0 78 3 102
23 56 46 184 128 255 161 152 72 339 96 463 60 161 -46 254 -256 214 -481 -14
-84 -35 -145 -88 -259 l-46 -100 -3 -162 c-5 -197 -4 -199 132 -308 50 -39
127 -110 171 -156 44 -46 82 -84 85 -84 3 0 212 -218 464 -485 252 -267 488
-515 524 -552 l65 -67 -136 -143 c-256 -270 -465 -529 -651 -807 l-93 -138
-28 71 c-104 267 -348 690 -442 763 -56 44 -71 50 -159 63 -143 21 -238 -12
-372 -131 -131 -116 -246 -194 -387 -264 -169 -84 -254 -106 -421 -112 -151
-6 -232 7 -373 60 -278 105 -581 368 -806 702 -58 87 -139 151 -203 161 -77
11 -231 -2 -297 -27 -44 -16 -84 -22 -151 -23 -85 -1 -93 1 -127 27 -21 16
-50 52 -65 80 -23 45 -27 64 -27 137 0 80 3 92 49 194 67 152 89 264 83 426
-3 83 -12 154 -26 210 -24 93 -91 242 -140 314 -49 70 -109 203 -132 291 -15
56 -23 123 -26 223 l-6 142 84 0 c104 1 163 12 198 37 27 20 34 29 161 204
100 138 311 353 438 449 153 115 335 204 487 239 63 14 264 12 356 -4z m-1843
-1866 c94 -188 94 -332 -2 -546 -53 -118 -69 -204 -64 -348 4 -96 10 -134 31
-193 69 -198 216 -340 397 -388 43 -12 100 -17 170 -17 101 1 117 4 315 57 16
5 30 -8 70 -65 28 -40 76 -103 108 -141 34 -41 55 -74 51 -81 -32 -54 -469
-687 -475 -687 -8 0 -1769 1319 -1799 1347 -13 12 56 85 560 583 316 313 580
568 585 566 6 -1 29 -40 53 -87z m-560 -2026 c510 -383 931 -700 936 -704 7
-6 -1937 -2872 -1979 -2917 -10 -11 -252 146 -1289 834 l-1276 848 492 485
c271 267 870 860 1333 1318 462 458 844 832 848 832 4 1 425 -312 935 -696z
m6092 329 c76 -42 192 -88 296 -115 l88 -24 138 -358 c77 -196 138 -359 136
-360 -2 -2 -199 -35 -438 -75 -238 -39 -445 -78 -460 -85 -34 -18 -77 -64 -89
-98 -27 -72 -17 -108 133 -479 l143 -355 -650 -527 -650 -528 -90 42 c-110 51
-172 73 -271 95 -90 20 -87 9 -51 178 208 1002 716 1959 1432 2698 l125 128
76 -53 c43 -29 102 -67 132 -84z m1273 -178 c898 -75 1599 -350 2115 -829 194
-180 392 -453 522 -720 151 -309 232 -583 287 -970 16 -113 18 -189 16 -585
-3 -482 -12 -665 -44 -900 -71 -516 -224 -949 -459 -1303 -297 -448 -705 -755
-1231 -928 -135 -44 -372 -94 -494 -104 -44 -4 -120 -13 -170 -21 -803 -127
-1712 265 -2585 1112 -200 195 -550 585 -550 614 0 7 490 562 559 633 l27 27
56 -67 c362 -439 834 -814 1251 -993 256 -109 431 -148 707 -157 354 -11 560
35 766 169 311 204 508 590 579 1139 37 281 29 738 -18 1084 -54 396 -10 627
151 798 78 82 98 126 88 195 -14 100 -88 162 -194 162 -69 0 -121 -28 -192
-106 -115 -124 -193 -284 -236 -486 -27 -126 -26 -405 4 -618 35 -257 48 -546
34 -771 -43 -683 -246 -1057 -629 -1161 -68 -18 -104 -20 -283 -19 -289 1
-431 34 -685 155 -424 204 -831 561 -1218 1071 -108 142 -301 360 -403 453
l-73 67 636 515 c718 581 731 592 749 637 29 68 20 102 -112 431 -70 172 -125
314 -123 316 2 1 191 33 419 70 228 37 430 72 448 77 72 23 131 104 132 181 0
24 -54 176 -156 440 -85 221 -158 406 -161 411 -7 11 232 2 470 -19z m-3270
-71 c86 -138 155 -267 220 -413 59 -134 157 -413 157 -448 0 -11 -29 -80 -65
-155 -173 -363 -315 -756 -415 -1155 l-11 -44 -71 104 c-475 691 -1194 1311
-2023 1743 -71 38 -131 69 -133 71 -2 1 35 59 83 128 l87 126 41 -31 c226
-170 438 -271 670 -321 144 -30 370 -30 514 0 287 62 575 214 833 442 25 22
48 40 52 40 3 0 31 -39 61 -87z m-6676 -3164 c714 -474 1301 -864 1305 -868 3
-3 -88 -143 -202 -311 -227 -331 -298 -414 -408 -469 -129 -65 -242 -64 -377
4 -64 32 -1584 1086 -1717 1191 -113 89 -215 247 -264 409 -36 123 -39 291 -5
410 43 154 81 216 225 363 71 72 133 132 137 132 4 0 592 -388 1306 -861z
m6843 177 c221 -40 462 -194 714 -457 64 -67 121 -129 125 -138 6 -12 -65 -98
-299 -359 -169 -189 -317 -353 -328 -365 l-21 -20 -43 28 c-97 64 -209 155
-307 250 -225 218 -331 416 -331 615 0 91 18 162 64 255 53 107 94 150 169
174 101 33 150 36 257 17z m561 -2232 c232 -254 535 -527 814 -735 534 -397
1047 -627 1591 -714 154 -25 491 -30 649 -11 72 9 189 23 260 31 600 69 1169
325 1574 711 l101 96 0 -1456 0 -1456 -2565 0 -2565 0 0 1840 c0 1012 1 1840
3 1840 2 0 64 -66 138 -146z m-2379 -469 c96 -33 154 -69 229 -144 107 -106
169 -259 169 -410 -1 -258 -205 -501 -465 -556 -90 -19 -128 -19 -223 1 -273
56 -462 287 -462 564 0 161 50 281 170 401 96 97 204 153 335 173 58 8 181 -5
247 -29z m-1138 -586 c13 -198 62 -347 172 -514 l16 -25 -2491 0 -2491 0 0
320 0 320 2393 0 2394 0 7 -101z m2986 -2189 l0 -290 -3795 0 -3795 0 0 290 0
290 3795 0 3795 0 0 -290z"/>
</g>
</svg>
