<?xml version="1.0" standalone="no"?>
<svg version="1.0" xmlns="http://www.w3.org/2000/svg"
 width="1685.000000pt" height="1705.000000pt" viewBox="0 0 1685.000000 1705.000000"
 preserveAspectRatio="xMidYMid meet">
<metadata>
</metadata>
<g transform="translate(0.000000,1705.000000) scale(0.100000,-0.100000)" stroke="none">
<path d="M830 16038 l0 -1013 -93 -22 c-233 -57 -460 -214 -585 -406 -99 -151
-143 -313 -144 -517 0 -192 39 -376 109 -513 126 -250 371 -436 630 -480 l78
-13 3 -285 2 -284 -84 -22 c-121 -31 -221 -76 -323 -143 -305 -201 -442 -497
-411 -888 28 -367 198 -645 490 -801 86 -47 168 -75 261 -91 l67 -12 0 -307 0
-306 -93 -23 c-186 -46 -397 -173 -512 -308 -151 -178 -217 -366 -216 -619 1
-401 159 -706 459 -885 80 -47 207 -95 277 -105 94 -13 85 19 85 -299 l0 -283
-72 -18 c-179 -43 -342 -131 -472 -255 -91 -87 -144 -160 -196 -274 -70 -153
-94 -304 -79 -501 21 -262 104 -464 258 -628 135 -143 330 -248 509 -272 l52
-7 0 -312 0 -311 -84 -22 c-184 -47 -355 -144 -478 -270 -104 -106 -148 -172
-198 -298 -80 -201 -83 -490 -9 -730 108 -352 424 -609 775 -632 108 -7 205 3
199 20 -2 7 -6 27 -9 45 l-6 32 100 0 100 0 2 725 3 724 65 -32 c43 -21 90
-56 141 -107 104 -103 157 -210 180 -365 l11 -73 87 -6 c47 -3 132 -8 189 -12
l102 -6 0 45 c0 132 -44 305 -111 441 -120 241 -341 425 -595 494 l-69 19 -3
1091 -2 1092 37 -17 c195 -89 330 -279 357 -504 l7 -57 72 -6 c40 -3 125 -8
190 -12 l117 -6 0 48 c0 191 -84 430 -207 591 -128 169 -326 300 -517 345
l-56 13 0 1062 c0 585 2 1063 5 1063 17 0 118 -59 165 -96 123 -96 201 -246
225 -430 l7 -52 131 -6 c73 -4 159 -9 191 -12 l59 -6 -7 94 c-21 304 -181 593
-419 757 -66 45 -200 108 -281 131 -38 11 -70 21 -72 23 -2 2 -3 491 -2 1086
l3 1082 65 -32 c43 -22 91 -58 141 -108 105 -104 157 -211 180 -366 l11 -73
92 -6 c50 -3 135 -8 189 -12 l97 -6 0 45 c0 149 -62 365 -145 506 -58 99 -189
237 -284 301 -81 54 -189 104 -277 128 l-69 19 -3 1062 c-1 583 1 1061 4 1061
3 0 37 -16 75 -36 168 -88 278 -255 310 -466 l11 -76 152 -6 c83 -4 169 -9
190 -13 l39 -5 -6 93 c-29 436 -320 792 -734 899 l-43 11 0 824 0 825 5890 0
5890 0 0 -1480 0 -1480 190 0 190 0 0 1670 0 1670 -6275 0 -6275 0 0 -1012z
m0 -1993 l0 -585 -27 6 c-64 14 -171 74 -228 126 -117 109 -173 246 -182 448
-6 129 7 199 54 298 32 67 136 176 206 217 47 27 154 74 170 75 4 0 7 -263 7
-585z m0 -2521 l0 -586 -32 6 c-118 23 -282 158 -338 277 -43 94 -61 171 -67
294 -11 225 65 386 236 499 52 35 165 89 199 96 1 0 2 -264 2 -586z m0 -2569
c0 -322 -4 -585 -8 -585 -5 0 -34 9 -65 19 -113 39 -231 140 -289 247 -66 123
-98 361 -65 491 46 177 162 306 346 384 36 16 69 29 74 29 4 0 7 -263 7 -585z
m0 -2521 l0 -586 -32 6 c-119 24 -268 143 -333 268 -67 127 -94 343 -60 487
34 142 138 273 274 345 56 29 119 57 149 65 1 1 2 -263 2 -585z m0 -2580 l0
-586 -32 6 c-64 12 -160 69 -229 133 -114 108 -166 238 -176 438 -11 225 66
387 235 498 51 34 176 94 200 97 1 0 2 -264 2 -586z"/>
<path d="M3303 14339 c-70 -27 -146 -97 -180 -167 l-28 -57 0 -1120 0 -1120
26 -56 c34 -72 96 -134 168 -168 l56 -26 1115 0 1115 0 57 28 c72 35 134 97
167 167 l26 55 0 1120 0 1120 -25 50 c-36 74 -114 148 -183 173 l-58 22 -1102
-1 c-1077 0 -1103 0 -1154 -20z m2147 -1349 l0 -990 -990 0 -990 0 0 990 0
990 990 0 990 0 0 -990z"/>
<path d="M4625 13305 c-154 -168 -296 -322 -315 -344 l-36 -39 -124 137 c-68
75 -127 137 -132 139 -12 5 -273 -238 -273 -254 0 -19 516 -585 529 -581 13 4
916 978 916 988 0 9 -270 259 -279 258 -3 0 -132 -137 -286 -304z"/>
<path d="M6800 13580 l0 -190 1970 0 1970 0 0 190 0 190 -1970 0 -1970 0 0
-190z"/>
<path d="M13000 10376 l0 -2343 -187 -6 c-546 -17 -1094 -159 -1651 -427 -384
-186 -655 -382 -962 -696 -271 -278 -476 -559 -679 -931 l-73 -133 -1304 0
-1304 0 0 -190 0 -190 1223 0 1223 0 -68 -202 c-54 -163 -119 -400 -154 -565
l-4 -23 -1090 0 -1090 0 0 -195 0 -195 1061 0 1061 0 -8 -112 c-13 -176 -8
-518 10 -686 57 -538 226 -1057 501 -1538 83 -146 271 -423 374 -553 50 -63
91 -116 91 -118 0 -1 -1969 -3 -4375 -3 l-4375 0 0 465 0 465 -195 0 -195 0 0
-655 0 -655 4759 0 4759 0 98 -62 c719 -453 1444 -724 2169 -810 148 -17 645
-17 790 0 643 79 1209 301 1750 687 424 303 819 714 1063 1107 371 597 575
1224 622 1906 50 737 -115 1555 -450 2231 -44 89 -85 161 -91 161 -15 0 -319
-183 -319 -192 0 -4 31 -72 69 -150 119 -245 212 -499 285 -778 58 -221 85
-384 121 -708 l5 -42 -1670 0 -1670 0 0 1703 0 1702 48 -3 c763 -46 1591 -418
2184 -981 l97 -92 140 126 c121 108 140 129 131 145 -11 21 -209 203 -313 288
-224 183 -483 351 -752 487 -361 184 -725 305 -1095 365 -74 12 -145 24 -157
26 l-23 4 0 2355 0 2355 -190 0 -190 0 0 -2344z m-260 -4630 l0 -1895 36 -3
36 -3 712 -1465 c392 -806 738 -1519 769 -1583 l57 -118 -65 -30 c-253 -114
-566 -201 -890 -245 -181 -25 -576 -25 -770 0 -628 79 -1197 289 -1880 694
-158 93 -191 118 -271 199 -51 51 -134 143 -186 205 -543 648 -840 1330 -908
2086 -16 171 -8 573 15 742 75 565 280 1159 563 1630 280 466 678 886 1067
1128 263 163 631 323 972 422 211 62 557 126 696 129 l47 1 0 -1894z m3720
-1948 c0 -139 -46 -455 -95 -662 -96 -406 -285 -836 -527 -1200 -182 -274
-514 -619 -818 -852 -113 -86 -324 -224 -330 -216 -4 4 -330 673 -725 1487
-395 814 -720 1483 -722 1488 -2 4 721 7 1606 7 l1611 0 0 -52z"/>
<path d="M6840 12415 l0 -195 1110 0 1110 0 0 195 0 195 -1110 0 -1110 0 0
-195z"/>
<path d="M3347 10379 c-96 -23 -182 -94 -226 -188 l-26 -56 0 -1120 0 -1120
28 -57 c35 -71 110 -140 183 -167 54 -21 70 -21 1154 -21 l1099 0 58 22 c69
25 147 99 183 173 l25 50 0 1120 0 1120 -26 55 c-33 70 -95 132 -167 167 l-57
28 -1095 2 c-619 1 -1111 -3 -1133 -8z m2103 -1359 l0 -990 -990 0 -990 0 0
990 0 990 990 0 990 0 0 -990z"/>
<path d="M4590 9230 c-172 -187 -317 -340 -321 -340 -4 0 -62 61 -129 135 -67
74 -125 135 -129 135 -3 0 -68 -57 -144 -126 -124 -114 -137 -128 -125 -145
30 -41 514 -567 523 -568 6 -1 217 223 470 496 l459 496 -36 31 c-19 17 -82
75 -140 129 -58 53 -107 97 -110 97 -3 0 -146 -153 -318 -340z"/>
<path d="M6800 9615 l0 -195 1970 0 1970 0 0 195 0 195 -1970 0 -1970 0 0
-195z"/>
<path d="M6840 8450 l0 -190 1110 0 1110 0 0 190 0 190 -1110 0 -1110 0 0
-190z"/>
<path d="M3319 6396 c-86 -31 -164 -102 -203 -185 l-21 -46 0 -1120 0 -1120
27 -57 c32 -69 92 -129 166 -165 l57 -28 1090 -3 c1070 -2 1091 -2 1157 18 84
25 164 95 205 178 l28 57 0 1120 0 1120 -30 58 c-36 73 -109 140 -181 166 -54
21 -69 21 -1157 21 -875 -1 -1109 -4 -1138 -14z m2131 -1356 l0 -990 -990 0
-990 0 0 990 0 990 990 0 990 0 0 -990z"/>
<path d="M4590 5250 l-315 -341 -40 43 c-22 24 -80 87 -130 141 l-90 98 -138
-127 c-76 -69 -137 -131 -135 -138 3 -12 519 -584 528 -585 8 -1 920 987 920
996 0 11 -259 247 -274 251 -6 1 -153 -151 -326 -338z"/>
</g>
</svg>
