<?xml version="1.0" standalone="no"?>
<svg version="1.0" xmlns="http://www.w3.org/2000/svg"
 width="1649.000000pt" height="1657.000000pt" viewBox="0 0 1649.000000 1657.000000"
 preserveAspectRatio="xMidYMid meet">
<metadata>
</metadata>
<g transform="translate(0.000000,1657.000000) scale(0.100000,-0.100000)" stroke="none">
<path d="M7886 16555 c-39 -14 -89 -55 -109 -90 -9 -15 -13 -794 -17 -3146
l-5 -3125 -732 762 c-447 464 -746 768 -767 778 -31 15 -285 16 -3072 16
l-3038 0 -44 -21 c-26 -13 -54 -38 -70 -62 l-27 -41 -3 -5725 c-2 -4101 0
-5737 8 -5764 14 -47 65 -106 107 -123 27 -12 730 -14 4250 -14 4098 0 4219 1
4259 19 23 10 54 36 70 57 l29 37 3 2344 2 2343 1483 1 c815 1 2531 4 3812 8
2146 6 2332 7 2360 23 40 22 81 66 94 101 8 20 11 1370 11 4518 0 4419 0 4490
-19 4527 -26 49 -2423 2541 -2470 2567 -36 20 -57 20 -3056 22 -2547 2 -3026
0 -3059 -12z m5674 -1622 l0 -1246 25 -44 c16 -27 42 -51 68 -66 l42 -22 1208
-3 1207 -2 0 -4174 0 -4174 -842 -6 c-464 -3 -2257 -9 -3985 -12 l-3143 -6 0
5501 0 5501 2710 0 2710 0 0 -1247z m-7638 -4765 c3 -1099 4 -1206 20 -1233
22 -40 66 -81 101 -94 19 -8 300 -11 873 -11 l844 0 0 -1942 c0 -1876 1 -1944
19 -1984 10 -23 36 -54 57 -70 l37 -29 239 -3 238 -3 0 -2210 0 -2209 -3985 0
-3985 0 0 5495 0 5495 2770 0 2770 0 2 -1202z"/>
<path d="M8915 15016 c-58 -25 -115 -112 -115 -176 0 -34 22 -91 47 -120 47
-56 89 -70 213 -70 l110 0 0 -1050 0 -1050 -117 0 c-133 0 -180 -15 -225 -68
-46 -55 -55 -153 -20 -218 19 -35 80 -83 114 -89 18 -3 366 -5 773 -3 l740 3
85 29 c158 53 264 119 367 230 141 150 212 338 213 559 0 239 -76 432 -238
599 -35 37 -89 84 -118 104 -30 21 -54 41 -54 45 0 4 16 34 34 67 126 213 165
493 100 713 -56 192 -228 372 -428 450 -150 58 -169 59 -838 59 -484 -1 -619
-4 -643 -14z m1268 -381 c121 -31 213 -100 259 -193 58 -118 24 -335 -74 -474
l-19 -28 -315 0 -314 0 0 355 0 355 203 0 c147 0 218 -4 260 -15z m329 -1248
c246 -168 278 -512 67 -716 -50 -48 -140 -94 -217 -110 -32 -7 -171 -11 -347
-11 l-295 0 0 440 0 440 364 0 365 0 63 -43z"/>
<path d="M11870 12425 l0 -255 1800 0 1800 0 0 255 0 255 -1800 0 -1800 0 0
-255z"/>
<path d="M8870 11230 l0 -250 895 0 895 0 0 250 0 250 -895 0 -895 0 0 -250z"/>
<path d="M11280 11230 l0 -250 590 0 590 0 0 250 0 250 -590 0 -590 0 0 -250z"/>
<path d="M13070 11230 l0 -250 1200 0 1200 0 0 250 0 250 -1200 0 -1200 0 0
-250z"/>
<path d="M8870 10035 l0 -255 595 0 595 0 0 255 0 255 -595 0 -595 0 0 -255z"/>
<path d="M10690 10035 l0 -255 1490 0 1490 0 0 255 0 255 -1490 0 -1490 0 0
-255z"/>
<path d="M14260 10035 l0 -255 605 0 605 0 0 255 0 255 -605 0 -605 0 0 -255z"/>
<path d="M8870 8845 l0 -255 895 0 895 0 0 255 0 255 -895 0 -895 0 0 -255z"/>
<path d="M13070 8845 l0 -255 1200 0 1200 0 0 255 0 255 -1200 0 -1200 0 0
-255z"/>
<path d="M11270 8835 l0 -255 595 0 595 0 0 255 0 255 -595 0 -595 0 0 -255z"/>
<path d="M8870 7650 l0 -250 1500 0 1500 0 0 250 0 250 -1500 0 -1500 0 0
-250z"/>
<path d="M12470 7650 l0 -250 1500 0 1500 0 0 250 0 250 -1500 0 -1500 0 0
-250z"/>
<path d="M8870 6445 l0 -255 310 0 310 0 0 255 0 255 -310 0 -310 0 0 -255z"/>
<path d="M10050 6445 l0 -255 1500 0 1500 0 0 255 0 255 -1500 0 -1500 0 0
-255z"/>
<path d="M13660 6445 l0 -255 905 0 905 0 0 255 0 255 -905 0 -905 0 0 -255z"/>
<path d="M2536 10555 c-22 -8 -54 -29 -72 -47 -23 -24 -178 -353 -595 -1263
-618 -1352 -608 -1329 -609 -1365 -1 -144 146 -240 276 -181 23 10 52 34 66
52 14 19 94 186 179 372 l154 337 645 0 645 0 119 -278 c178 -412 191 -438
234 -467 78 -51 182 -42 246 22 43 44 60 91 54 152 -4 32 -172 430 -557 1316
-601 1383 -575 1328 -667 1354 -50 14 -70 13 -118 -4z m293 -1189 c122 -279
221 -510 221 -512 0 -2 -209 -4 -465 -4 -256 0 -465 3 -465 7 0 23 475 1041
481 1030 4 -6 106 -241 228 -521z"/>
<path d="M4720 7645 l0 -255 1170 0 1170 0 0 255 0 255 -1170 0 -1170 0 0
-255z"/>
<path d="M1100 6445 l0 -255 895 0 895 0 0 255 0 255 -895 0 -895 0 0 -255z"/>
<path d="M3500 6445 l0 -255 590 0 590 0 0 255 0 255 -590 0 -590 0 0 -255z"/>
<path d="M5300 6445 l0 -255 890 0 890 0 0 255 0 255 -890 0 -890 0 0 -255z"/>
<path d="M1100 5255 l0 -255 595 0 595 0 0 255 0 255 -595 0 -595 0 0 -255z"/>
<path d="M6490 5255 l0 -255 295 0 295 0 0 255 0 255 -295 0 -295 0 0 -255z"/>
<path d="M2910 5250 l0 -250 1490 0 1490 0 0 250 0 250 -1490 0 -1490 0 0
-250z"/>
<path d="M1100 4060 l0 -250 890 0 890 0 0 250 0 250 -890 0 -890 0 0 -250z"/>
<path d="M3500 4055 l0 -255 590 0 590 0 0 255 0 255 -590 0 -590 0 0 -255z"/>
<path d="M5290 4060 l0 -250 1200 0 1200 0 0 250 0 250 -1200 0 -1200 0 0
-250z"/>
<path d="M1100 2865 l0 -255 1495 0 1495 0 0 255 0 255 -1495 0 -1495 0 0
-255z"/>
<path d="M4690 2865 l0 -255 1500 0 1500 0 0 255 0 255 -1500 0 -1500 0 0
-255z"/>
<path d="M1100 1665 l0 -255 305 0 305 0 0 255 0 255 -305 0 -305 0 0 -255z"/>
<path d="M2290 1665 l0 -255 1495 0 1495 0 0 255 0 255 -1495 0 -1495 0 0
-255z"/>
<path d="M5880 1665 l0 -255 905 0 905 0 0 255 0 255 -905 0 -905 0 0 -255z"/>
<path d="M2792 15889 c-26 -13 -55 -39 -70 -62 l-27 -41 -5 -1335 -5 -1336
-408 482 c-279 329 -419 486 -441 497 -51 24 -140 21 -188 -6 -82 -46 -115
-169 -68 -256 32 -60 1171 -1394 1209 -1416 46 -26 136 -26 182 0 19 11 314
330 656 708 672 743 652 718 639 816 -17 124 -157 197 -272 143 -25 -13 -165
-160 -452 -478 -228 -253 -428 -473 -443 -490 l-29 -30 0 1223 0 1222 1730 0
c1431 0 1736 2 1763 14 59 24 117 111 117 176 0 65 -58 152 -117 176 -27 12
-351 14 -1880 14 l-1848 0 -43 -21z"/>
<path d="M13743 4083 c-41 -21 -1262 -1370 -1285 -1421 -78 -169 122 -338 280
-236 20 13 800 866 898 983 2 2 4 -545 4 -1217 l0 -1222 -1717 0 c-1223 0
-1730 -3 -1758 -11 -81 -22 -147 -131 -129 -213 11 -54 47 -107 90 -132 l41
-24 1856 0 c1290 0 1864 3 1884 11 35 13 70 45 91 84 16 27 17 147 22 1364 l5
1334 408 -482 c224 -264 420 -487 436 -496 79 -40 174 -26 232 35 61 64 71
164 23 237 -9 15 -277 333 -594 708 -432 509 -586 684 -614 698 -46 21 -130
21 -173 0z"/>
</g>
</svg>
