<?xml version="1.0" standalone="no"?>
<svg version="1.0" xmlns="http://www.w3.org/2000/svg"
 width="1564.000000pt" height="1563.000000pt" viewBox="0 0 1564.000000 1563.000000"
 preserveAspectRatio="xMidYMid meet">
<metadata>
</metadata>
<g transform="translate(0.000000,1563.000000) scale(0.100000,-0.100000)" stroke="none">
<path d="M1355 15611 c-50 -22 -91 -70 -105 -120 -7 -26 -9 -1955 -8 -6062 3
-6003 3 -6024 23 -6061 29 -53 3198 -3332 3239 -3352 31 -15 448 -16 4871 -16
4439 0 4839 1 4868 16 45 23 66 44 88 86 19 36 19 201 19 7709 l0 7673 -21 44
c-13 26 -38 54 -62 70 l-41 27 -6415 2 c-6208 3 -6417 2 -6456 -16z m12615
-7796 l0 -7435 -4595 0 -4595 0 0 1558 c0 1489 -1 1559 -19 1597 -22 50 -69
91 -119 105 -25 6 -532 10 -1524 10 l-1488 0 0 5800 0 5800 6170 0 6170 0 0
-7435z m-9570 -5845 c0 -715 -2 -1300 -4 -1300 -4 0 -2333 2412 -2455 2543
l-54 57 1257 0 1256 0 0 -1300z"/>
<path d="M6917 14655 c-50 -17 -85 -50 -108 -100 -17 -37 -19 -74 -19 -511 l0
-471 -42 -13 c-78 -23 -315 -129 -525 -234 l-208 -104 -367 333 c-201 182
-381 338 -399 345 -47 20 -119 17 -162 -6 -43 -22 -1080 -1071 -1102 -1114
-17 -33 -20 -126 -5 -164 11 -29 49 -70 427 -468 l264 -277 -51 -89 c-93 -164
-198 -422 -264 -652 l-34 -115 -500 -5 -500 -5 -39 -31 c-81 -66 -78 -46 -81
-524 l-3 -425 -234 3 -235 4 0 -190 0 -190 212 -6 c117 -3 2306 -31 4863 -61
2558 -30 4766 -57 4908 -60 l257 -6 0 195 0 196 -275 0 -275 0 0 489 c0 322
-4 499 -11 518 -13 35 -54 79 -94 101 -26 15 -87 18 -503 22 l-474 5 -28 110
c-54 213 -141 424 -255 620 l-67 116 20 22 c11 12 146 165 300 340 261 295
282 322 292 370 16 69 1 126 -49 180 -740 821 -997 1100 -1031 1117 -46 23
-117 26 -163 6 -18 -8 -205 -162 -417 -344 l-384 -329 -54 34 c-162 104 -513
242 -706 279 l-36 6 0 474 c0 376 -3 481 -14 507 -17 43 -76 93 -123 106 -25
7 -314 11 -853 11 -664 -1 -822 -3 -853 -15z m1463 -830 c0 -401 2 -460 16
-488 38 -74 69 -91 219 -124 216 -47 417 -114 568 -189 88 -45 145 -82 219
-145 31 -27 68 -53 83 -59 44 -17 127 -12 162 10 25 15 645 538 749 632 l21
19 367 -405 c202 -223 367 -408 367 -411 0 -3 -127 -150 -283 -326 -156 -176
-291 -336 -301 -357 -12 -26 -17 -54 -14 -93 3 -52 10 -67 85 -178 178 -263
296 -556 337 -830 18 -118 31 -150 77 -185 59 -43 89 -46 551 -46 l437 0 0
-366 0 -367 -647 7 c-357 3 -759 9 -894 12 l-246 7 -6 131 c-16 351 -133 750
-314 1070 -334 592 -886 1026 -1515 1190 -237 63 -303 70 -603 70 -301 1 -405
-12 -648 -79 -937 -257 -1635 -1060 -1762 -2029 -8 -64 -15 -158 -15 -208 l0
-91 -552 7 c-304 3 -709 9 -900 12 l-348 7 0 303 0 304 465 0 c443 0 468 1
504 20 54 27 87 70 101 132 87 368 227 717 377 941 73 108 87 160 63 232 -11
33 -243 287 -623 682 l-50 52 373 380 c205 210 376 381 380 381 4 0 162 -140
351 -311 188 -171 356 -318 373 -326 18 -9 55 -16 87 -16 50 0 68 7 179 68
318 175 630 314 836 374 83 25 117 48 144 102 19 36 20 60 20 489 l0 450 605
0 605 0 0 -455z m-323 -1810 c596 -77 1124 -417 1473 -950 120 -185 243 -477
290 -693 24 -109 50 -306 50 -377 l0 -54 -277 5 c-355 7 -3480 44 -3675 44
l-148 0 0 64 c0 86 26 279 52 391 118 507 445 970 888 1258 241 156 554 272
825 306 50 6 101 13 115 15 67 9 302 4 407 -9z"/>
<path d="M11490 8810 l0 -240 250 0 250 0 0 -1595 0 -1595 -250 0 -250 0 0
-240 0 -240 250 0 250 0 0 -1595 0 -1595 -250 0 -250 0 0 -240 0 -240 740 0
740 0 0 240 0 240 -250 0 -250 0 0 1595 0 1595 250 0 250 0 0 240 0 240 -250
0 -250 0 0 1595 0 1595 250 0 250 0 0 240 0 240 -740 0 -740 0 0 -240z"/>
<path d="M2730 6625 l0 -2375 195 0 195 0 0 325 0 325 1735 0 1735 0 0 -1620
0 -1620 -585 0 -585 0 0 -195 0 -195 2755 0 2755 0 0 3865 0 3865 -4100 0
-4100 0 0 -2375z m3860 375 l0 -1620 -1735 0 -1735 0 0 1620 0 1620 1735 0
1735 0 0 -1620z m3960 0 l0 -1620 -400 0 -400 0 0 -240 0 -240 400 0 400 0 0
-1620 0 -1620 -1740 0 -1740 0 0 1620 0 1620 288 0 287 0 908 908 907 907
-170 170 -170 170 -838 -838 -837 -837 -188 0 -187 0 0 1620 0 1620 1740 0
1740 0 0 -1620z"/>
<path d="M3390 8085 l0 -255 255 0 255 0 0 255 0 255 -255 0 -255 0 0 -255z"/>
<path d="M4140 8085 l0 -255 255 0 255 0 0 255 0 255 -255 0 -255 0 0 -255z"/>
<path d="M7310 8085 l0 -255 255 0 255 0 0 255 0 255 -255 0 -255 0 0 -255z"/>
<path d="M8060 8085 l0 -255 255 0 255 0 0 255 0 255 -255 0 -255 0 0 -255z"/>
<path d="M7310 2195 l0 -255 255 0 255 0 0 255 0 255 -255 0 -255 0 0 -255z"/>
<path d="M8060 2195 l0 -255 255 0 255 0 0 255 0 255 -255 0 -255 0 0 -255z"/>
</g>
</svg>
