<?xml version="1.0" standalone="no"?>
<svg version="1.0" xmlns="http://www.w3.org/2000/svg"
 width="1597.000000pt" height="1610.000000pt" viewBox="0 0 1597.000000 1610.000000"
 preserveAspectRatio="xMidYMid meet">
<metadata>
</metadata>
<g transform="translate(0.000000,1610.000000) scale(0.100000,-0.100000)" stroke="none">
<path d="M7820 16093 c-14 -2 -60 -16 -103 -30 -159 -51 -309 -183 -386 -336
-83 -165 -76 26 -76 -2137 0 -1806 1 -1929 18 -1990 21 -80 75 -191 121 -251
l34 -45 -61 -70 c-270 -304 -458 -648 -552 -1008 -52 -199 -69 -333 -69 -546
0 -430 118 -836 363 -1250 l50 -85 -59 -27 c-201 -91 -354 -273 -405 -483 -14
-57 -16 -97 -11 -220 6 -169 21 -236 74 -345 50 -106 185 -239 294 -293 129
-62 169 -68 491 -74 283 -5 287 -6 292 -27 2 -11 18 -90 35 -175 145 -707 489
-1350 995 -1857 423 -423 896 -698 1450 -842 61 -16 110 -33 110 -38 0 -5 -9
-57 -19 -115 l-19 -107 -41 -12 c-70 -21 -286 -111 -391 -163 -548 -272 -1014
-707 -1331 -1239 -273 -459 -449 -1005 -519 -1603 -8 -71 -15 -155 -15 -186
l0 -56 -647 -6 c-355 -4 -913 -7 -1240 -7 l-593 0 0 -235 0 -235 793 5 c1115
8 7022 35 7666 35 l533 0 -6 303 c-6 239 -12 338 -32 477 -102 721 -360 1341
-771 1855 -113 142 -328 357 -468 469 -260 208 -606 406 -892 511 l-131 48
-27 146 c-15 80 -28 150 -29 155 0 5 59 26 132 48 300 87 657 245 901 397 734
459 1247 1178 1465 2056 29 117 76 355 76 386 0 5 102 9 228 9 252 0 356 9
452 39 192 60 364 231 425 422 55 175 55 409 -1 556 -69 185 -230 347 -405
410 l-46 17 54 90 c327 548 436 1145 313 1711 -63 288 -220 629 -406 882 l-53
72 37 12 c62 19 164 76 221 123 77 63 137 139 181 231 75 156 70 4 70 2125 0
2121 5 1969 -70 2125 -88 182 -251 315 -446 365 -76 20 -125 20 -3803 19
-2049 -1 -3737 -4 -3751 -6z m7512 -406 c64 -31 120 -89 152 -157 l21 -45 0
-1895 0 -1895 -21 -45 c-32 -68 -88 -126 -152 -157 l-57 -28 -3705 0 -3705 0
-51 27 c-28 15 -72 50 -97 78 -84 93 -77 -88 -77 2020 0 2108 -7 1927 77 2020
43 48 97 84 153 101 14 4 1686 7 3715 6 l3690 -2 57 -28z m-5993 -4607 l1544
-5 139 -380 c92 -254 150 -397 174 -433 51 -77 118 -138 196 -177 242 -121
489 -32 617 223 50 99 148 369 215 592 l53 175 1299 3 1298 2 59 -57 c128
-126 273 -330 370 -520 231 -453 266 -921 106 -1408 -51 -155 -197 -449 -296
-595 l-78 -115 -87 -3 -88 -3 0 682 c0 644 -1 681 -17 676 -10 -3 -90 -30
-178 -61 -770 -268 -1902 -355 -2910 -225 -803 104 -1607 346 -2326 700 -100
50 -190 89 -200 87 -10 -2 -338 -201 -728 -443 l-711 -440 0 -487 0 -488 -95
0 -94 0 -59 88 c-223 331 -363 676 -402 995 -18 142 -8 433 19 560 78 358 272
719 540 999 44 47 78 75 85 70 6 -4 706 -9 1555 -12z m2504 -112 c-91 -292
-187 -529 -221 -547 -26 -14 -78 12 -101 49 -10 18 -56 134 -101 259 -45 124
-93 254 -106 289 l-23 62 294 0 293 0 -35 -112z m-2455 -1227 c910 -421 1861
-660 2870 -722 252 -15 886 -7 1122 15 344 33 682 85 963 151 l137 32 0 -901
c0 -503 -5 -974 -10 -1066 -44 -704 -276 -1331 -680 -1840 -99 -124 -301 -328
-420 -423 -473 -378 -1053 -611 -1725 -693 -187 -23 -616 -23 -801 -1 -558 69
-1009 252 -1444 587 -118 91 -390 363 -492 490 -392 494 -618 1035 -715 1710
-14 99 -17 252 -20 1085 l-4 970 533 332 c293 182 539 332 546 332 7 1 70 -25
140 -58z m-1598 -2097 l0 -355 -257 3 -258 3 -53 30 c-64 35 -97 71 -130 144
-21 46 -25 69 -26 170 -1 103 2 121 23 163 44 90 139 164 238 187 21 5 134 9
251 10 l212 1 0 -356z m7581 328 c108 -43 191 -144 208 -253 5 -28 4 -89 0
-135 -11 -103 -40 -166 -104 -222 -76 -66 -105 -72 -377 -72 l-238 0 0 356 0
355 228 -3 c208 -3 232 -5 283 -26z m-3485 -4134 c10 -57 19 -108 19 -114 0
-6 -125 -118 -279 -248 -241 -205 -281 -235 -295 -224 -9 7 -137 114 -286 237
-148 123 -271 225 -273 226 -3 3 35 185 40 191 3 2 67 0 144 -6 263 -19 576
-9 809 24 50 8 93 14 96 15 3 0 14 -45 25 -101z m-1071 -660 c141 -116 252
-215 248 -219 -16 -14 -646 -409 -649 -406 -2 1 -30 158 -63 347 -34 190 -63
357 -66 371 -5 20 -1 28 12 32 10 3 70 24 133 46 63 23 118 41 122 41 4 0 123
-95 263 -212z m1413 140 c91 -29 92 -29 91 -61 -1 -94 -77 -732 -86 -730 -6 1
-151 95 -323 208 -209 138 -309 210 -303 216 6 6 116 100 244 209 200 170 238
198 259 193 14 -3 67 -19 118 -35z m-2199 -808 c57 -322 104 -587 106 -589 2
-2 95 54 205 124 111 70 203 125 204 123 1 -2 68 -161 149 -355 l147 -352
-134 -481 c-73 -265 -135 -482 -137 -484 -2 -2 -474 -7 -1048 -11 l-1044 -7 6
124 c11 234 89 613 184 895 193 576 513 1044 963 1409 93 75 284 203 291 196
3 -4 52 -270 108 -592z m2856 479 c155 -105 258 -191 406 -339 231 -229 391
-450 542 -748 132 -261 226 -523 291 -815 36 -158 73 -383 82 -488 l6 -86
-392 -6 c-216 -4 -695 -7 -1064 -7 l-671 0 -141 488 -140 489 104 199 c57 109
133 254 168 321 l65 122 205 -136 c112 -75 206 -134 209 -132 3 4 135 1226
135 1252 0 12 73 -31 195 -114z m-1318 -491 c134 -88 243 -164 243 -169 0 -4
-74 -148 -164 -321 l-163 -313 -160 -3 -160 -2 -138 327 c-76 181 -140 337
-142 348 -3 17 33 43 214 157 120 76 220 138 223 138 2 0 114 -73 247 -162z
m-93 -1265 c102 -349 207 -726 202 -730 -3 -4 -164 -9 -357 -11 -340 -5 -351
-4 -345 14 3 11 48 174 101 364 53 190 98 353 101 363 5 15 21 17 149 17 128
0 144 -2 149 -17z"/>
<path d="M8260 14900 l0 -190 765 0 765 0 0 190 0 190 -765 0 -765 0 0 -190z"/>
<path d="M10290 14900 l0 -190 1550 0 1550 0 0 190 0 190 -1550 0 -1550 0 0
-190z"/>
<path d="M8260 13870 l0 -190 1525 0 1525 0 0 190 0 190 -1525 0 -1525 0 0
-190z"/>
<path d="M12144 13290 l-581 -699 -153 165 c-85 90 -156 164 -159 164 -9 0
-276 -253 -276 -261 0 -3 136 -151 303 -328 l303 -322 719 863 c396 475 719
868 720 874 0 11 -274 244 -287 244 -5 -1 -269 -315 -589 -700z"/>
<path d="M13964 13290 l-581 -699 -154 165 c-84 90 -155 164 -158 164 -9 0
-276 -253 -276 -261 0 -3 137 -152 304 -329 271 -287 306 -321 317 -305 7 9
329 397 716 861 387 464 704 850 706 857 3 13 -269 248 -285 246 -5 0 -270
-315 -589 -699z"/>
<path d="M8260 12840 l0 -190 1020 0 1020 0 0 190 0 190 -1020 0 -1020 0 0
-190z"/>
<path d="M3725 15084 c-317 -47 -547 -162 -755 -380 -148 -155 -246 -329 -303
-542 l-32 -117 -5 -3493 -5 -3492 -65 37 c-79 47 -256 215 -357 340 -41 51
-89 101 -106 110 -39 20 -130 23 -173 5 -36 -15 -1539 -1554 -1567 -1604 -14
-25 -17 -49 -15 -99 4 -82 37 -131 107 -161 261 -109 366 -199 359 -305 -3
-46 -5 -49 -49 -71 -62 -30 -174 -42 -423 -42 -187 0 -201 -1 -238 -22 -22
-13 -51 -41 -64 -64 l-24 -41 0 -1078 0 -1077 22 -40 c14 -24 41 -51 68 -66
l45 -27 363 -3 c199 -2 362 -7 362 -11 0 -4 -18 -36 -40 -70 -53 -81 -209
-242 -331 -342 -58 -46 -103 -91 -113 -112 -20 -44 -21 -129 0 -172 22 -46
1563 -1545 1611 -1567 77 -35 177 -11 225 53 14 19 37 66 52 104 87 222 233
353 323 290 46 -33 55 -89 62 -391 l6 -281 27 -40 c16 -24 44 -49 70 -62 44
-21 45 -21 1088 -21 1043 0 1044 0 1088 21 26 13 54 38 70 62 l27 40 6 281 c6
302 15 358 62 391 90 63 235 -68 323 -292 19 -48 44 -98 57 -111 52 -58 148
-77 220 -44 50 22 1581 1512 1608 1564 25 49 25 127 0 177 -12 23 -55 65 -108
108 -114 92 -281 264 -332 343 -23 35 -41 67 -41 71 0 4 163 9 363 11 l362 3
45 27 c27 15 54 42 68 66 l22 40 0 1077 0 1078 -24 41 c-46 79 -65 83 -366 89
-274 5 -349 16 -392 55 -22 19 -24 91 -3 131 35 69 158 150 346 229 70 30 103
79 107 161 2 50 -1 74 -15 98 -23 43 -1514 1573 -1556 1598 -41 25 -139 26
-184 2 -17 -9 -65 -59 -106 -109 -99 -122 -256 -275 -336 -327 -35 -22 -68
-41 -72 -41 -5 0 -10 1565 -12 3478 l-3 3477 -22 99 c-112 485 -465 837 -944
942 -70 15 -320 27 -383 18z m242 -385 c190 -26 332 -98 478 -244 90 -89 107
-112 153 -205 88 -178 86 -158 90 -712 l3 -488 -841 0 -841 0 3 468 c5 516 6
530 76 684 111 246 356 442 607 487 130 23 166 25 272 10z m723 -2369 l0 -300
-840 0 -840 0 0 300 0 300 840 0 840 0 0 -300z m0 -3469 l0 -2740 -81 30
c-111 40 -249 76 -399 101 -168 29 -519 32 -685 5 -129 -21 -342 -75 -438
-111 -37 -14 -70 -26 -72 -26 -3 0 -5 1233 -5 2740 l0 2740 840 0 840 0 0
-2739z m-2596 -1879 c174 -170 336 -274 471 -305 l60 -14 2 -374 2 -374 -83
-58 c-411 -286 -732 -757 -861 -1267 -51 -201 -59 -278 -59 -550 0 -276 7
-342 65 -567 281 -1097 1361 -1811 2489 -1647 559 82 1072 375 1423 814 238
297 392 640 462 1030 27 146 32 491 10 661 -18 147 -66 347 -114 479 -48 130
-161 353 -239 470 -156 234 -400 482 -598 607 l-44 28 0 375 0 376 58 12 c127
26 293 134 471 306 l103 101 107 -112 c58 -61 311 -321 561 -578 250 -256 456
-469 457 -473 2 -4 -18 -20 -45 -37 -77 -48 -183 -163 -225 -243 -62 -118 -80
-236 -53 -363 56 -265 276 -389 689 -389 l107 0 0 -825 0 -824 -357 -3 c-328
-3 -361 -5 -396 -22 -82 -41 -130 -148 -131 -291 0 -194 92 -370 315 -599
l108 -112 -581 -566 -581 -565 -60 79 c-128 171 -286 258 -467 258 -247 0
-397 -119 -471 -372 -17 -58 -22 -110 -26 -255 l-5 -183 -808 0 -808 0 -5 183
c-5 202 -21 280 -80 392 -37 71 -117 154 -175 184 -95 48 -263 65 -371 36
-127 -33 -243 -117 -338 -243 l-60 -79 -581 565 -581 566 114 117 c237 246
337 464 305 664 -21 131 -76 210 -165 234 -25 7 -165 11 -377 11 l-338 0 0
825 0 825 108 0 c448 0 670 147 697 460 14 157 -46 310 -170 435 -38 39 -91
84 -117 100 -27 17 -47 33 -45 37 3 9 1121 1158 1126 1158 2 0 50 -44 105 -98z
m1971 -1223 c135 -16 335 -71 472 -129 68 -29 126 -56 129 -61 8 -14 -41 -93
-78 -125 -18 -15 -58 -39 -88 -53 l-55 -26 -595 0 c-590 0 -595 0 -642 22 -57
26 -141 103 -158 144 -7 16 -11 31 -9 33 2 2 36 19 74 39 136 68 331 127 499
152 114 16 333 18 451 4z m1072 -556 c421 -476 557 -1113 363 -1697 -246 -739
-949 -1228 -1715 -1193 -456 22 -861 206 -1176 535 -226 235 -379 527 -451
855 -20 89 -22 131 -22 337 0 207 2 247 22 340 48 222 134 430 251 605 76 115
171 229 181 218 4 -4 155 -426 335 -938 180 -511 341 -965 357 -1008 76 -197
244 -367 430 -433 256 -90 525 41 653 321 18 39 182 532 366 1098 183 565 336
1027 340 1027 3 0 33 -30 66 -67z m-1925 -213 c89 -14 1202 -13 1285 1 35 6
66 9 68 7 3 -2 -40 -143 -96 -314 -55 -170 -107 -330 -115 -357 l-16 -47 -506
2 -505 3 -128 360 c-70 198 -128 365 -128 371 -1 8 10 8 38 -2 22 -7 68 -18
103 -24z m985 -1143 c-3 -7 -42 -128 -87 -268 -87 -270 -108 -318 -165 -368
-54 -47 -105 -40 -192 26 -63 48 -100 120 -188 370 -47 132 -85 244 -85 247 0
3 162 6 361 6 294 0 360 -2 356 -13z"/>
<path d="M3600 10755 l0 -245 245 0 245 0 0 245 0 245 -245 0 -245 0 0 -245z"/>
<path d="M3600 9725 l0 -245 250 0 250 0 0 245 0 245 -250 0 -250 0 0 -245z"/>
<path d="M3600 8690 l0 -250 250 0 250 0 0 250 0 250 -250 0 -250 0 0 -250z"/>
</g>
</svg>
