<?xml version="1.0" standalone="no"?>
<svg version="1.0" xmlns="http://www.w3.org/2000/svg"
 width="1468.000000pt" height="1449.000000pt" viewBox="0 0 1468.000000 1449.000000"
 preserveAspectRatio="xMidYMid meet">
<metadata>
</metadata>
<g transform="translate(0.000000,1449.000000) scale(0.100000,-0.100000)" stroke="none">
<path d="M1884 14471 c-23 -10 -54 -36 -70 -57 l-29 -37 -3 -849 -2 -848 -820
0 c-555 0 -828 -3 -847 -11 -38 -14 -71 -46 -94 -91 -19 -36 -19 -162 -19
-6235 0 -6032 1 -6199 19 -6239 10 -23 36 -54 57 -70 l37 -29 7196 -3 c3958
-1 7211 0 7229 3 39 7 105 63 122 104 9 22 11 151 7 513 -4 523 -10 593 -73
878 -172 771 -596 1438 -1209 1900 -463 348 -993 553 -1587 612 l-118 12 0
163 0 163 28 6 c680 148 1223 608 1475 1250 44 110 90 283 114 419 24 140 24
490 0 630 -68 397 -238 754 -489 1033 l-48 52 0 3306 c0 3223 0 3306 -19 3342
-23 46 -46 67 -94 87 -33 13 -593 15 -5379 15 -5197 0 -5344 -1 -5384 -19z
m10496 -3386 c0 -1664 -3 -3025 -6 -3025 -3 0 -37 19 -76 41 -205 120 -451
204 -713 245 -76 12 -171 17 -307 17 l-198 0 0 731 0 731 -23 40 c-12 22 -42
52 -65 68 -24 16 -614 634 -1312 1373 -698 739 -1283 1350 -1299 1359 -27 13
-362 15 -3126 15 l-3095 0 0 715 0 715 5110 0 5110 0 0 -3025z m-4358 -77 c3
-1416 -1 -1319 60 -1374 62 -58 -26 -54 1353 -54 l1265 0 -2 -651 -3 -651 -95
-34 c-533 -190 -971 -613 -1185 -1144 -177 -439 -193 -952 -43 -1402 170 -513
548 -944 1032 -1178 163 -78 282 -119 479 -164 l27 -6 0 -169 0 -169 -27 -6
c-16 -3 -64 -10 -108 -16 -44 -6 -153 -27 -242 -46 -912 -194 -1647 -762
-2053 -1588 -142 -288 -232 -571 -281 -882 -20 -125 -23 -186 -26 -616 l-5
-478 -3894 0 -3894 0 0 5960 0 5960 3820 0 3820 0 2 -1292z m1442 -36 c520
-551 946 -1004 946 -1007 0 -3 -450 -5 -1000 -5 l-1000 0 0 1062 0 1063 54
-55 c29 -30 479 -506 1000 -1058z m2073 -3008 c346 -51 663 -213 918 -469 311
-311 476 -707 478 -1145 0 -85 -5 -191 -12 -235 -57 -369 -212 -675 -471 -935
-228 -229 -512 -381 -840 -451 -89 -20 -136 -23 -310 -24 -174 0 -222 3 -315
22 -261 53 -492 159 -700 321 -414 320 -653 833 -632 1352 33 787 617 1444
1393 1564 123 19 363 19 491 0z m170 -4328 c339 -27 708 -128 1008 -276 780
-385 1334 -1116 1515 -2000 45 -219 60 -401 60 -710 l0 -270 -2864 0 -2864 0
-7 175 c-4 96 -5 300 -2 453 5 280 15 384 57 572 207 930 897 1675 1795 1936
139 40 391 93 479 100 34 3 88 11 121 19 46 10 127 13 345 10 157 -2 318 -6
357 -9z"/>
<path d="M3300 9800 l0 -390 1360 0 1360 0 0 390 0 390 -1360 0 -1360 0 0
-390z"/>
<path d="M1610 8050 l0 -390 3460 0 3460 0 0 390 0 390 -3460 0 -3460 0 0
-390z"/>
<path d="M1610 6300 l0 -390 3050 0 3050 0 0 390 0 390 -3050 0 -3050 0 0
-390z"/>
<path d="M1610 4550 l0 -390 3080 0 3080 0 0 390 0 390 -3080 0 -3080 0 0
-390z"/>
<path d="M1610 2805 l0 -385 2630 0 2630 0 0 385 0 385 -2630 0 -2630 0 0
-385z"/>
</g>
</svg>
