<?xml version="1.0" standalone="no"?>
<svg version="1.0" xmlns="http://www.w3.org/2000/svg"
 width="1575.000000pt" height="1585.000000pt" viewBox="0 0 1575.000000 1585.000000"
 preserveAspectRatio="xMidYMid meet">
<metadata>
</metadata>
<g transform="translate(0.000000,1585.000000) scale(0.100000,-0.100000)" stroke="none">
<path d="M142 15838 c-54 -12 -116 -71 -131 -125 -16 -55 -15 -14192 0 -14248
14 -51 73 -110 124 -124 57 -16 4073 -16 4130 0 53 15 110 73 125 129 24 88
-15 182 -90 220 -39 20 -53 20 -1980 20 l-1940 0 0 6875 0 6875 4870 0 4870 0
0 -2502 c0 -2407 1 -2505 19 -2543 29 -65 104 -115 171 -115 65 0 152 58 176
117 12 27 14 475 14 2657 0 1830 -3 2633 -11 2653 -13 35 -54 79 -94 101 -28
16 -397 17 -5120 18 -3253 1 -5106 -2 -5133 -8z"/>
<path d="M5760 14496 c-115 -31 -194 -118 -220 -241 -7 -34 -10 -372 -8 -1050
l3 -1000 26 -56 c31 -65 82 -119 142 -151 l42 -23 1485 0 1485 0 42 23 c60 32
111 86 142 151 l26 56 0 1025 c0 962 -1 1028 -18 1077 -24 69 -85 136 -155
170 l-57 28 -1445 2 c-1121 1 -1455 -1 -1490 -11z m2780 -1256 l0 -890 -1310
0 -1310 0 0 890 0 890 1310 0 1310 0 0 -890z"/>
<path d="M3528 11483 c-31 -12 -144 -144 -621 -722 l-583 -708 -290 284 c-174
171 -305 292 -329 303 -44 22 -109 26 -152 9 -61 -23 -122 -109 -123 -173 0
-82 7 -91 397 -479 206 -205 393 -383 415 -397 51 -30 125 -32 181 -5 30 14
179 188 691 810 360 435 661 805 670 823 33 64 13 176 -41 224 -51 47 -146 60
-215 31z"/>
<path d="M3640 9951 c-93 -29 -140 -91 -140 -186 0 -75 31 -130 92 -165 l43
-25 1260 0 c693 0 1272 3 1287 8 38 10 98 65 114 104 8 18 14 53 14 78 0 25
-6 60 -14 78 -17 43 -76 93 -123 106 -45 13 -2493 14 -2533 2z"/>
<path d="M10080 9704 c-71 -31 -110 -92 -110 -174 0 -78 35 -137 102 -171 34
-17 62 -19 318 -19 l280 0 0 -530 0 -530 -22 -5 c-13 -3 -66 -14 -118 -25
-512 -111 -993 -316 -1372 -588 -88 -63 -118 -109 -118 -185 0 -113 77 -190
190 -190 63 0 71 3 177 79 502 361 1260 587 2053 613 225 7 574 -2 705 -19
545 -69 1112 -295 1587 -631 315 -224 655 -556 883 -863 119 -161 158 -227
247 -418 481 -1033 591 -2012 327 -2915 -110 -376 -266 -679 -547 -1063 -440
-600 -1083 -1083 -1844 -1384 -392 -154 -843 -269 -1165 -297 -139 -12 -438 0
-638 26 -408 53 -803 173 -1161 353 -696 349 -1318 968 -1702 1692 -54 102
-94 133 -176 138 -166 11 -253 -134 -177 -294 46 -98 117 -218 226 -384 190
-288 365 -499 621 -750 788 -771 1764 -1169 2871 -1170 352 0 892 117 1370
299 643 244 1176 579 1632 1026 252 247 392 418 623 761 304 451 491 971 564
1569 22 179 29 573 15 765 -47 614 -215 1219 -513 1841 -61 128 -69 152 -57
163 8 7 79 69 159 138 80 69 173 155 207 191 227 243 295 618 171 941 -42 110
-135 245 -211 307 -75 61 -198 122 -292 145 -100 25 -326 25 -419 0 -210 -56
-286 -107 -678 -459 l-76 -68 -95 65 c-382 265 -833 467 -1294 579 l-173 42 0
517 0 517 229 3 229 3 39 31 c50 40 73 87 73 151 0 87 -29 137 -102 174 -36
18 -80 19 -1420 19 -1209 -1 -1387 -3 -1418 -16z m1990 -860 c0 -467 -1 -495
-17 -490 -10 3 -115 8 -233 11 -193 6 -455 -2 -682 -21 l-78 -7 0 502 0 501
505 0 505 0 0 -496z m3035 -1075 c139 -36 246 -192 262 -379 10 -124 -44 -277
-134 -377 -42 -46 -302 -273 -313 -273 -4 0 -29 28 -56 63 -98 125 -258 299
-399 434 l-145 139 177 157 c190 168 267 218 376 242 65 15 160 12 232 -6z"/>
<path d="M3521 8312 c-24 -12 -207 -227 -594 -697 -308 -374 -570 -691 -583
-704 l-23 -24 -295 289 c-163 159 -308 294 -324 301 -42 19 -120 16 -167 -7
-90 -44 -129 -153 -86 -245 22 -47 747 -773 798 -799 42 -21 132 -21 179 1 27
13 192 208 687 807 358 434 659 806 669 825 39 77 13 183 -58 238 -30 23 -48
28 -103 30 -47 2 -76 -2 -100 -15z"/>
<path d="M7645 7256 c-16 -7 -42 -26 -57 -42 -31 -33 -2517 -5163 -2525 -5209
-5 -33 171 -1519 187 -1577 28 -100 150 -164 245 -128 58 22 1396 854 1414
879 10 14 578 1185 1262 2601 l1243 2575 1 66 c0 69 -20 114 -69 150 -11 9
-365 168 -786 354 -678 299 -772 338 -825 342 -38 2 -71 -2 -90 -11z m853
-726 c254 -112 462 -208 462 -214 0 -6 -529 -1107 -1176 -2447 l-1176 -2437
-506 -311 c-278 -171 -509 -308 -512 -303 -4 4 -37 257 -74 563 l-66 556 1164
2404 c640 1323 1173 2423 1185 2446 l21 42 107 -48 c60 -26 316 -139 571 -251z"/>
<path d="M3628 6780 c-79 -24 -128 -94 -128 -185 0 -62 9 -86 49 -128 56 -61
-33 -57 1350 -57 875 0 1278 3 1298 11 72 27 117 104 111 190 -5 74 -37 121
-102 154 l-50 25 -1250 -1 c-688 0 -1263 -4 -1278 -9z"/>
</g>
</svg>
