<?xml version="1.0" standalone="no"?>
<svg version="1.0" xmlns="http://www.w3.org/2000/svg"
 width="1422.000000pt" height="1419.000000pt" viewBox="0 0 1422.000000 1419.000000"
 preserveAspectRatio="xMidYMid meet">
<metadata>
</metadata>
<g transform="translate(0.000000,1419.000000) scale(0.100000,-0.100000)" stroke="none">
<path d="M605 14179 c-170 -16 -323 -87 -435 -200 -73 -74 -120 -147 -150
-232 -20 -57 -20 -80 -17 -3525 2 -3307 3 -3470 20 -3527 66 -219 220 -380
412 -430 51 -13 173 -15 857 -15 l798 0 0 190 0 190 -769 0 c-520 0 -779 3
-798 11 -63 24 -112 93 -132 187 -8 39 -11 969 -11 3426 l0 3373 29 40 c42 57
91 92 162 114 59 18 131 19 2605 19 l2544 0 0 195 0 195 -2517 -1 c-1385 -1
-2554 -5 -2598 -10z"/>
<path d="M6960 14175 c-310 -53 -586 -187 -794 -385 -200 -192 -324 -429 -372
-712 -17 -103 -19 -105 -53 -125 -134 -78 -368 -289 -491 -443 -370 -464 -555
-1083 -554 -1850 0 -275 11 -396 55 -615 186 -923 786 -1606 1685 -1918 248
-86 432 -117 694 -117 343 0 604 62 915 215 807 397 1283 1191 1375 2290 15
183 12 651 -5 770 -59 421 -221 825 -450 1130 -156 207 -374 404 -576 522
l-77 44 -7 57 c-77 651 -482 1076 -1087 1141 -119 13 -162 13 -258 -4z m370
-405 c217 -62 388 -204 487 -405 31 -61 78 -193 72 -200 -2 -2 -56 10 -119 27
-153 40 -252 43 -302 9 -61 -42 -83 -85 -83 -161 0 -56 4 -73 27 -108 36 -53
67 -69 201 -99 652 -147 1114 -564 1326 -1198 37 -112 91 -330 91 -370 0 -12
-17 -2 -61 37 -218 192 -462 313 -759 376 -167 36 -290 46 -470 37 -314 -16
-383 -5 -575 90 -232 115 -508 363 -709 636 -60 82 -106 110 -182 110 -70 0
-120 -25 -158 -79 -29 -40 -30 -46 -37 -204 -5 -97 -16 -205 -29 -268 -93
-455 -384 -732 -869 -824 l-71 -14 6 42 c57 388 204 759 409 1031 233 309 600
542 968 615 43 9 69 21 97 46 50 46 63 80 58 158 -5 77 -38 128 -102 157 -55
25 -101 24 -221 -5 -55 -14 -102 -22 -104 -20 -7 7 55 130 97 193 116 174 348
327 605 396 81 22 107 25 212 21 82 -3 144 -11 195 -26z m-705 -2067 c232
-197 496 -328 740 -369 80 -13 125 -14 225 -8 307 21 499 2 712 -72 123 -43
157 -60 268 -132 197 -127 349 -332 439 -592 l23 -66 -21 -149 c-112 -770
-447 -1333 -992 -1665 -185 -113 -406 -199 -604 -236 -136 -26 -440 -26 -570
-1 -337 66 -722 248 -989 466 -504 415 -785 1057 -786 1799 l0 102 38 0 c57 0
215 29 312 57 485 139 810 445 960 902 16 51 30 101 30 110 0 34 13 30 69 -20
31 -27 97 -84 146 -126z"/>
<path d="M6123 10729 c-126 -21 -273 -109 -350 -211 -86 -112 -123 -222 -123
-365 0 -166 52 -295 165 -409 182 -183 448 -227 685 -112 98 47 206 159 256
265 l39 82 335 1 335 0 34 -78 c45 -101 163 -223 261 -270 234 -113 501 -71
680 108 113 112 170 252 170 415 1 436 -453 714 -847 520 -124 -61 -237 -185
-281 -307 l-17 -48 -335 0 -336 0 -17 48 c-26 72 -91 165 -155 222 -132 118
-316 169 -499 139z m238 -278 c74 -35 125 -85 161 -159 29 -58 33 -76 32 -142
0 -91 -23 -147 -85 -215 -120 -130 -320 -141 -453 -24 -124 109 -144 292 -47
432 82 120 262 169 392 108z m1800 -3 c64 -30 130 -94 161 -157 33 -69 36
-178 7 -256 -64 -170 -271 -254 -434 -176 -228 109 -260 395 -63 554 88 70
221 85 329 35z"/>
<path d="M6839 9287 c-155 -57 -207 -244 -101 -367 65 -77 79 -80 390 -80 297
0 318 3 375 58 112 106 90 292 -42 370 l-46 27 -270 2 c-204 2 -279 -1 -306
-10z"/>
<path d="M8500 13995 l0 -195 2563 -2 2562 -3 50 -23 c54 -25 118 -81 141
-124 12 -23 14 -509 14 -3407 0 -2347 -3 -3395 -11 -3430 -15 -73 -61 -138
-112 -161 -40 -19 -74 -20 -814 -20 l-773 0 0 -190 0 -190 803 0 c890 0 845
-3 978 66 137 72 243 216 291 395 l23 84 2 3438 3 3438 -24 69 c-54 155 -177
291 -331 365 -181 87 97 79 -2797 82 l-2568 3 0 -195z"/>
<path d="M11265 12201 c-48 -22 -79 -54 -100 -103 -13 -33 -15 -155 -15 -1011
0 -719 3 -983 12 -1008 18 -52 48 -87 94 -110 41 -20 56 -20 511 -17 458 3
469 4 538 27 206 68 362 201 450 386 47 98 67 191 68 310 0 156 -46 291 -134
397 l-40 48 39 52 c78 104 115 201 133 348 12 106 -3 189 -56 289 -94 178
-233 294 -435 362 -121 40 -235 48 -690 48 -305 1 -339 -1 -375 -18z m730
-373 c178 -3 181 -3 245 -34 78 -37 133 -83 172 -143 34 -54 36 -99 8 -174
-24 -63 -67 -108 -135 -139 -49 -22 -59 -23 -402 -26 l-353 -3 0 263 0 263
142 -2 c79 -2 224 -4 323 -5z m313 -928 c56 -33 104 -90 123 -147 17 -53 6
-161 -22 -219 -31 -66 -107 -140 -177 -172 l-57 -27 -322 -3 -323 -3 0 300 0
301 363 0 362 0 53 -30z"/>
<path d="M2099 12185 c-294 -56 -540 -233 -654 -470 -82 -171 -79 -135 -83
-900 -2 -478 0 -691 8 -718 35 -121 185 -173 292 -102 74 49 78 70 78 365 l0
260 445 0 444 0 3 -268 c3 -268 3 -269 28 -305 30 -44 109 -87 160 -87 51 0
130 43 160 87 l25 37 0 725 0 726 -23 79 c-65 224 -213 402 -417 501 -154 74
-316 99 -466 70z m287 -410 c68 -33 162 -122 193 -183 43 -84 51 -144 51 -369
l0 -213 -445 0 -445 0 0 183 c0 259 22 345 112 443 57 62 141 115 233 147 108
38 213 35 301 -8z"/>
<path d="M4805 8706 c-600 -115 -1090 -370 -1505 -786 -306 -305 -532 -660
-653 -1028 -93 -279 -90 -250 -95 -982 -2 -455 0 -656 8 -683 14 -47 65 -106
107 -123 85 -36 201 3 246 81 9 14 14 205 17 670 l6 650 36 135 c96 357 284
680 563 969 390 405 858 644 1440 736 110 18 147 36 186 93 19 29 24 48 24
102 0 56 -4 73 -28 108 -56 86 -135 99 -352 58z"/>
<path d="M9077 8709 c-46 -24 -87 -84 -94 -138 -14 -102 58 -203 153 -216 659
-90 1243 -409 1631 -890 214 -265 374 -579 445 -872 20 -84 22 -120 27 -739
l6 -651 29 -37 c51 -67 152 -95 229 -62 42 17 93 76 107 123 8 27 10 229 8
683 -4 625 -5 648 -27 745 -101 451 -342 882 -698 1246 -408 418 -933 694
-1526 804 -167 30 -238 31 -290 4z"/>
<path d="M8620 8258 c-78 -40 -115 -125 -88 -204 9 -25 113 -158 296 -377
l283 -337 -264 0 c-166 0 -276 -4 -296 -11 -21 -7 -101 -86 -242 -237 -116
-124 -220 -239 -230 -256 -28 -45 -26 -133 4 -176 32 -48 69 -72 120 -77 85
-10 103 3 304 218 l186 199 409 0 c451 0 449 0 505 63 36 41 49 98 34 153 -8
29 -115 164 -420 529 -225 270 -423 498 -439 507 -50 30 -111 33 -162 6z"/>
<path d="M5372 8207 c-28 -13 -829 -966 -854 -1016 -36 -71 -12 -166 54 -213
l33 -23 425 -5 426 -5 177 -190 c97 -104 192 -198 209 -207 73 -40 169 -16
221 54 29 39 34 132 10 175 -25 43 -418 463 -457 488 -28 18 -53 20 -302 25
l-271 5 283 339 c300 358 302 361 292 451 -6 53 -37 97 -82 119 -39 18 -129
20 -164 3z"/>
<path d="M7875 7881 c-43 -11 -82 -38 -104 -75 -10 -17 -101 -278 -201 -579
-164 -493 -182 -554 -178 -601 8 -95 68 -146 170 -146 58 0 106 23 132 62 8
13 99 271 201 573 194 570 206 617 175 675 -37 73 -117 109 -195 91z"/>
<path d="M6170 7823 c-60 -23 -109 -95 -110 -160 0 -17 86 -285 190 -594 208
-616 209 -617 294 -640 107 -29 216 51 216 158 0 46 -361 1134 -389 1173 -33
46 -80 70 -135 69 -28 0 -58 -3 -66 -6z"/>
<path d="M4015 6421 c-50 -22 -91 -69 -105 -119 -14 -52 -14 -3303 1 -3355 13
-48 71 -113 112 -126 46 -15 1553 -154 1605 -148 108 12 183 125 154 233 -7
25 -22 58 -34 75 -46 62 -48 63 -780 131 l-678 62 0 1423 c0 1319 1 1423 17
1423 9 0 582 -85 1274 -190 691 -104 1260 -190 1263 -190 3 0 6 -117 6 -260
l0 -260 195 0 195 0 0 260 c0 143 4 260 8 260 5 0 579 86 1276 190 698 105
1277 190 1287 190 19 0 19 -35 19 -1435 l0 -1435 -22 -4 c-13 -3 -305 -35
-650 -71 -345 -36 -640 -70 -655 -76 -69 -26 -113 -95 -113 -179 0 -92 65
-173 151 -186 36 -6 1439 138 1523 156 62 13 101 41 129 93 l22 42 3 1655 c2
1133 -1 1671 -8 1704 -6 28 -22 65 -37 84 -29 38 -93 71 -138 72 -16 0 -695
-100 -1509 -222 l-1480 -221 -1470 222 c-809 122 -1482 221 -1496 221 -14 0
-43 -9 -65 -19z"/>
<path d="M1992 4754 c-369 -62 -693 -310 -857 -657 -244 -514 -72 -1149 397
-1465 205 -138 415 -202 663 -202 203 0 364 38 539 128 655 336 838 1195 378
1774 -263 331 -694 493 -1120 422z m318 -375 c177 -28 313 -99 445 -233 79
-79 98 -105 142 -196 64 -130 85 -221 84 -360 -1 -351 -244 -661 -591 -757
-89 -24 -299 -24 -389 1 -242 66 -445 246 -538 476 -50 126 -67 299 -42 436
75 406 485 699 889 633z"/>
<path d="M6848 4756 c-243 -43 -460 -156 -633 -331 -352 -354 -440 -890 -220
-1341 198 -408 594 -654 1049 -654 205 0 365 38 540 128 292 150 516 429 596
742 163 638 -212 1271 -849 1437 -120 31 -361 40 -483 19z m312 -377 c177 -28
313 -99 447 -234 80 -80 97 -105 141 -196 65 -134 85 -216 84 -349 0 -216 -80
-410 -231 -558 -304 -300 -779 -308 -1088 -19 -165 154 -252 353 -253 573 0
112 13 187 51 285 131 341 497 555 849 498z"/>
<path d="M11778 4756 c-243 -43 -460 -156 -633 -331 -353 -354 -441 -890 -220
-1341 155 -318 419 -531 775 -626 107 -28 353 -36 475 -15 606 106 1030 664
967 1271 -52 500 -394 896 -881 1023 -120 31 -361 40 -483 19z m401 -396 c76
-21 189 -74 245 -113 58 -40 158 -142 198 -200 94 -138 139 -283 140 -447 1
-126 -18 -211 -73 -329 -227 -488 -855 -613 -1246 -248 -166 156 -253 353
-253 577 0 302 168 570 445 707 166 83 368 102 544 53z"/>
<path d="M1000 1941 c-245 -83 -471 -232 -632 -417 -169 -195 -281 -422 -340
-686 -17 -79 -21 -139 -25 -389 -5 -281 -4 -299 15 -342 30 -69 87 -102 172
-102 83 0 137 31 169 97 19 41 21 61 21 274 0 328 22 447 114 639 110 229 272
394 493 504 157 77 58 72 1229 69 l1049 -3 78 -32 c257 -107 441 -312 524
-580 26 -87 27 -92 32 -463 5 -323 8 -379 23 -405 66 -121 233 -140 320 -37
45 54 51 113 45 472 -5 356 -14 435 -68 594 -128 381 -410 664 -805 803 l-79
28 -1125 2 -1125 2 -85 -28z"/>
<path d="M5893 1935 c-544 -183 -924 -668 -983 -1254 -13 -133 -13 -495 0
-543 40 -143 236 -184 332 -70 40 47 48 111 48 361 0 245 10 328 54 458 54
160 134 289 254 415 123 127 253 212 406 264 l70 24 1031 0 1031 0 70 -24
c285 -97 498 -329 576 -628 19 -76 21 -115 25 -443 4 -327 6 -363 24 -396 64
-127 246 -133 330 -11 l24 36 0 385 c0 340 -2 396 -19 471 -58 267 -180 487
-372 670 -145 139 -319 240 -508 294 l-88 26 -1102 0 -1101 0 -102 -35z"/>
<path d="M10823 1935 c-542 -183 -919 -661 -983 -1247 -13 -125 -13 -502 0
-550 40 -143 236 -184 332 -70 40 47 48 111 48 361 0 245 10 328 54 458 54
160 134 289 254 415 121 126 257 214 410 267 62 21 66 21 1095 21 l1033 0 70
-24 c285 -97 498 -329 576 -628 19 -76 21 -115 25 -443 4 -327 6 -363 24 -396
64 -127 246 -133 330 -11 l24 36 0 385 c0 340 -2 396 -19 471 -58 267 -180
485 -373 671 -144 138 -317 239 -507 293 l-88 26 -1102 0 -1101 0 -102 -35z"/>
</g>
</svg>
