<?xml version="1.0" standalone="no"?>
<svg version="1.0" xmlns="http://www.w3.org/2000/svg"
 width="1381.000000pt" height="1451.000000pt" viewBox="0 0 1381.000000 1451.000000"
 preserveAspectRatio="xMidYMid meet">
<metadata>
</metadata>
<g transform="translate(0.000000,1451.000000) scale(0.100000,-0.100000)" stroke="none">
<path d="M2577 14500 c-313 -30 -564 -135 -738 -309 -118 -118 -189 -244 -238
-421 l-26 -95 -3 -6320 c-3 -7016 -8 -6413 63 -6631 124 -378 372 -603 770
-697 l90 -22 4440 -3 c3327 -2 4459 0 4514 9 319 49 602 263 746 563 48 102
77 187 108 326 l21 95 3 5116 3 5116 -1667 1636 -1668 1636 -3085 0 c-1697 1
-3121 3 -3165 5 -44 3 -120 1 -168 -4z m6136 -1577 c3 -1070 5 -1206 20 -1273
25 -109 54 -194 102 -290 130 -261 354 -431 642 -489 99 -20 130 -21 1287 -21
l1186 0 0 -4848 c0 -3241 -3 -4875 -10 -4929 -16 -127 -46 -230 -96 -333 -86
-175 -244 -303 -426 -345 -60 -14 -519 -15 -4470 -12 l-4403 2 -84 23 c-233
63 -387 209 -460 437 -16 49 -34 125 -40 168 -8 56 -11 1878 -11 6305 1 6855
-5 6314 64 6458 63 133 171 225 333 283 173 63 -45 59 3300 60 l3062 1 4
-1197z m1975 -627 l1082 -1061 -1062 -3 c-1182 -3 -1160 -4 -1294 63 -97 48
-189 145 -243 257 -73 153 -71 114 -71 1269 l0 1031 253 -247 c138 -137 739
-726 1335 -1309z"/>
<path d="M3105 10194 c-74 -38 -107 -92 -107 -174 0 -71 15 -100 87 -170 31
-30 133 -135 227 -232 l170 -178 -228 -236 c-126 -130 -233 -243 -238 -252
-33 -57 -19 -170 25 -219 50 -54 148 -78 216 -53 15 6 135 118 266 248 l237
237 238 -237 c130 -130 250 -242 265 -248 113 -41 244 35 255 150 10 103 11
102 -241 361 -128 132 -233 243 -235 248 -2 5 103 117 232 249 255 260 254
258 244 362 -12 120 -147 194 -263 146 -21 -9 -124 -105 -264 -248 l-230 -233
-238 237 c-131 130 -251 242 -266 248 -41 15 -118 12 -152 -6z"/>
<path d="M6205 10128 c-77 -28 -125 -96 -125 -181 0 -57 13 -94 48 -131 56
-60 -99 -56 2238 -56 l2146 0 40 22 c57 32 88 90 88 164 0 74 -22 119 -79 159
l-43 30 -2141 2 c-1498 1 -2151 -2 -2172 -9z"/>
<path d="M6208 9250 c-46 -14 -85 -48 -108 -96 -46 -95 -11 -207 80 -255 33
-18 78 -19 955 -19 l920 0 40 23 c105 60 127 202 44 291 -23 26 -54 47 -77 54
-46 14 -1809 16 -1854 2z"/>
<path d="M6181 7632 c-19 -9 -48 -34 -65 -55 -64 -80 -41 -217 47 -275 l41
-27 2155 0 c2034 0 2158 1 2188 17 55 30 86 82 91 149 6 75 -1 101 -40 144
-61 71 136 65 -2235 65 -2025 0 -2150 -1 -2182 -18z"/>
<path d="M4915 7551 c-28 -13 -185 -167 -530 -522 -270 -277 -520 -535 -556
-573 l-65 -69 -219 235 c-121 129 -235 245 -252 257 -36 26 -103 37 -158 27
-41 -8 -99 -55 -121 -99 -20 -37 -21 -122 -3 -164 20 -46 615 -680 661 -704
52 -27 132 -25 181 4 40 23 1288 1301 1308 1339 22 40 28 92 18 138 -27 120
-153 182 -264 131z"/>
<path d="M6245 6773 c-11 -2 -30 -6 -42 -9 -33 -6 -94 -63 -109 -101 -22 -50
-17 -123 9 -174 18 -33 37 -51 76 -71 l53 -28 892 0 c582 0 904 4 928 10 187
52 178 325 -12 369 -43 10 -1749 14 -1795 4z"/>
<path d="M11405 5706 c-23 -14 -51 -43 -65 -68 l-25 -43 -3 -1188 c-1 -821 1
-1201 8 -1228 14 -51 71 -115 117 -130 19 -6 60 -9 89 -7 61 5 115 41 149 99
20 33 20 52 20 1244 l0 1210 -27 45 c-36 61 -88 90 -164 90 -44 0 -69 -6 -99
-24z"/>
<path d="M4445 3655 c-238 -52 -433 -227 -510 -456 -37 -112 -46 -296 -20
-415 57 -259 248 -460 501 -524 76 -20 122 -20 2569 -20 2429 0 2494 0 2567
19 92 24 194 75 269 134 108 86 205 244 234 382 22 103 19 274 -5 371 -57 227
-227 412 -451 490 l-84 29 -2505 2 c-2049 1 -2516 -1 -2565 -12z m5067 -403
c72 -35 114 -78 150 -152 18 -37 22 -63 23 -145 0 -90 -3 -106 -28 -157 -34
-70 -101 -131 -173 -158 -55 -20 -66 -20 -2499 -20 -2433 0 -2444 0 -2499 20
-72 27 -139 88 -173 158 -25 50 -28 68 -28 152 0 82 4 103 26 151 43 91 121
156 216 178 22 5 1077 8 2478 8 l2440 -2 67 -33z"/>
<path d="M11422 2563 c-44 -21 -89 -74 -101 -120 -15 -53 -15 -994 0 -1048 20
-72 106 -135 184 -135 87 0 166 65 185 152 8 37 11 199 8 543 -3 532 -2 519
-60 571 -59 54 -150 70 -216 37z"/>
</g>
</svg>
