<?xml version="1.0" standalone="no"?>
<svg version="1.0" xmlns="http://www.w3.org/2000/svg"
 width="1377.000000pt" height="1435.000000pt" viewBox="0 0 1377.000000 1435.000000"
 preserveAspectRatio="xMidYMid meet">
<metadata>
</metadata>
<g transform="translate(0.000000,1435.000000) scale(0.100000,-0.100000)" stroke="none">
<path d="M1680 13350 l0 -1000 190 0 190 0 0 805 0 805 2050 0 2050 0 0 195 0
195 -2240 0 -2240 0 0 -1000z"/>
<path d="M6860 14155 l0 -195 1130 0 1130 0 0 -2110 0 -2110 2135 0 2135 0 0
-1400 0 -1400 190 0 190 0 0 1528 0 1528 -2187 2177 -2188 2176 -1267 0 -1268
1 0 -195z m5145 -2949 l1090 -1085 -1797 -1 -1798 0 0 1786 0 1786 708 -701
c389 -385 1198 -1189 1797 -1785z"/>
<path d="M2740 12360 l0 -920 920 0 920 0 0 920 0 920 -920 0 -920 0 0 -920z
m1460 0 l0 -540 -535 0 -535 0 0 540 0 540 535 0 535 0 0 -540z"/>
<path d="M5040 12360 l0 -920 920 0 920 0 0 920 0 920 -920 0 -920 0 0 -920z
m1450 0 l0 -540 -535 0 -535 0 0 540 0 540 535 0 535 0 0 -540z"/>
<path d="M623 11618 l-622 -623 1830 -1850 c1006 -1017 1940 -1960 2074 -2095
l245 -245 136 136 136 136 -1571 1588 c-865 873 -1570 1591 -1569 1595 4 10
678 704 687 708 3 1 1385 -1377 3071 -3063 l3065 -3065 -365 -365 -365 -365
-1232 1232 -1233 1233 -135 -135 -135 -135 1370 -1370 1369 -1369 25 23 25 24
966 -352 c531 -194 969 -351 974 -349 4 2 -165 425 -377 941 l-384 938 23 25
23 25 -3699 3699 c-2035 2035 -3702 3700 -3705 3700 -3 0 -285 -280 -627 -622z
m854 -150 l221 -221 -346 -358 -347 -357 -230 229 -230 229 350 350 c192 192
352 350 355 350 3 0 105 -100 227 -222z m7026 -7436 c103 -252 187 -460 187
-463 0 -3 -216 73 -481 169 l-480 175 288 289 c158 158 290 288 293 288 3 0
89 -206 193 -458z"/>
<path d="M3700 10770 l0 -230 230 0 230 0 0 230 0 230 -230 0 -230 0 0 -230z"/>
<path d="M4590 10770 l0 -230 230 0 230 0 0 230 0 230 -230 0 -230 0 0 -230z"/>
<path d="M5480 10770 l0 -230 225 0 225 0 0 230 0 230 -225 0 -225 0 0 -230z"/>
<path d="M1680 3915 l0 -3915 2685 0 2685 0 0 190 0 190 -2495 0 -2495 0 0
3725 0 3725 -190 0 -190 0 0 -3915z"/>
<path d="M9570 6700 l0 -230 225 0 225 0 0 230 0 230 -225 0 -225 0 0 -230z"/>
<path d="M10450 6700 l0 -230 230 0 230 0 0 230 0 230 -230 0 -230 0 0 -230z"/>
<path d="M11340 6700 l0 -230 230 0 230 0 0 230 0 230 -230 0 -230 0 0 -230z"/>
<path d="M12230 6700 l0 -230 230 0 230 0 0 230 0 230 -230 0 -230 0 0 -230z"/>
<path d="M13390 3325 l0 -2945 -2800 0 -2800 0 0 -190 0 -190 2990 0 2990 0 0
3135 0 3135 -190 0 -190 0 0 -2945z"/>
<path d="M2780 5800 l0 -230 700 0 700 0 0 230 0 230 -700 0 -700 0 0 -230z"/>
<path d="M8640 5800 l0 -230 2045 0 2045 0 0 230 0 230 -2045 0 -2045 0 0
-230z"/>
<path d="M2780 4915 l0 -225 1130 0 1130 0 0 225 0 225 -1130 0 -1130 0 0
-225z"/>
<path d="M9570 4905 l0 -225 1580 0 1580 0 0 225 0 225 -1580 0 -1580 0 0
-225z"/>
<path d="M9570 4035 l0 -225 1580 0 1580 0 0 225 0 225 -1580 0 -1580 0 0
-225z"/>
<path d="M2780 4010 l0 -230 1600 0 1600 0 0 230 0 230 -1600 0 -1600 0 0
-230z"/>
<path d="M2780 3110 l0 -230 2480 0 2480 0 0 230 0 230 -2480 0 -2480 0 0
-230z"/>
<path d="M9760 3110 l0 -230 1485 0 1485 0 0 230 0 230 -1485 0 -1485 0 0
-230z"/>
<path d="M2780 2205 l0 -225 4975 0 4975 0 0 225 0 225 -4975 0 -4975 0 0
-225z"/>
<path d="M2780 1300 l0 -230 4975 0 4975 0 0 230 0 230 -4975 0 -4975 0 0
-230z"/>
</g>
</svg>
